{"glyphs":{"0":{"ha":439,"x_min":28,"x_max":411,"o":"m 211 21 q 119 89 154 32 q 63 219 83 146 q 35 369 43 293 q 28 490 28 444 q 78 782 28 678 q 115 840 96 819 q 165 876 133 860 q 188 887 179 883 q 210 890 197 890 q 217 890 213 890 q 225 889 221 889 q 254 883 242 886 q 286 869 267 879 q 339 817 318 851 q 374 744 360 783 q 395 663 388 704 q 406 590 403 622 q 411 480 411 542 q 407 376 411 418 q 395 289 404 340 q 370 186 386 238 q 328 92 354 135 q 267 31 303 50 q 248 22 253 24 q 232 21 243 21 l 224 21 l 211 21 m 282 85 q 340 197 315 122 q 376 367 365 271 q 378 408 378 381 q 379 466 379 435 q 378 526 379 497 q 376 571 378 554 q 294 818 360 753 q 264 836 276 836 q 219 792 239 836 q 184 692 199 749 q 162 584 169 636 q 153 515 154 532 q 151 480 151 501 q 151 435 151 458 q 151 392 151 413 q 153 361 151 372 q 187 196 161 275 q 244 82 213 117 q 253 74 247 79 q 263 69 258 69 q 282 85 269 69 z "},"1":{"ha":331,"x_min":28,"x_max":308,"o":"m 111 17 q 100 31 100 19 q 104 39 100 31 q 122 44 110 44 l 133 46 l 132 74 q 131 117 132 85 q 129 185 131 150 q 126 326 128 269 q 124 425 125 382 q 120 506 122 468 q 115 592 118 544 q 111 665 113 625 q 108 729 110 706 q 106 776 107 753 q 104 810 106 800 l 103 833 l 99 825 q 88 809 94 819 q 73 788 81 799 q 60 769 65 778 q 53 760 54 761 q 43 757 50 757 q 28 772 28 757 q 35 788 28 776 q 51 812 42 799 q 69 838 61 825 q 82 854 78 850 q 96 872 90 867 q 106 878 101 876 q 126 879 108 879 q 165 879 143 879 q 210 879 199 879 q 225 878 222 879 q 235 862 232 875 q 239 832 239 849 q 240 803 239 825 q 242 754 240 781 q 244 689 243 729 q 246 617 244 649 q 249 539 247 585 q 251 461 250 493 q 253 420 253 444 q 256 368 254 396 q 258 311 257 340 q 258 256 258 282 q 260 149 260 189 q 263 90 261 110 l 267 53 l 281 51 q 299 46 296 50 q 297 24 308 35 l 293 19 l 211 18 q 151 17 176 17 q 122 15 125 17 q 111 17 113 15 z "},"2":{"ha":374,"x_min":26,"x_max":349,"o":"m 128 13 q 108 18 114 14 q 100 29 101 24 q 100 50 99 35 q 101 65 100 56 q 108 94 103 75 q 121 147 113 114 q 142 232 129 181 q 185 410 169 342 q 210 522 201 478 q 222 597 219 567 q 226 661 225 628 q 227 703 228 692 q 224 731 226 714 q 183 808 211 804 q 144 800 161 808 q 131 790 139 797 q 114 772 122 782 q 100 755 106 763 q 94 744 94 747 q 99 739 94 743 q 111 729 104 735 q 124 720 118 725 q 131 714 129 715 q 126 694 136 701 q 118 692 121 692 q 99 701 113 692 q 69 722 85 710 q 42 745 54 733 q 29 761 31 757 q 42 775 26 775 q 58 769 51 775 q 69 763 68 763 q 72 767 71 764 q 79 776 78 772 q 134 835 99 808 q 210 861 169 861 q 283 835 253 861 q 328 769 314 810 q 346 665 343 726 q 338 533 349 604 q 319 426 331 481 q 290 306 307 371 q 275 246 285 285 q 256 167 265 207 q 239 97 246 128 q 231 57 232 65 l 229 50 l 268 49 q 303 48 296 49 q 314 44 310 47 q 319 25 325 38 q 306 15 317 17 q 243 13 296 14 l 160 13 l 128 13 z "},"3":{"ha":417,"x_min":25,"x_max":404,"o":"m 156 13 q 103 40 121 19 q 72 92 85 61 l 68 90 q 60 88 68 90 q 43 82 46 82 q 33 88 39 82 q 32 106 25 96 q 47 114 33 108 q 75 126 60 119 q 104 138 90 133 q 122 143 118 143 q 137 133 133 143 q 133 117 140 124 q 126 113 131 115 q 117 110 122 111 q 104 103 104 104 q 110 90 104 100 q 119 75 115 81 q 144 64 128 64 q 188 86 168 64 q 223 138 208 108 q 247 199 238 168 q 258 249 257 231 q 260 300 261 268 q 256 350 258 332 q 228 431 247 394 q 161 475 210 467 q 138 481 143 478 q 131 493 132 485 q 135 507 131 501 q 158 525 140 513 q 210 585 193 551 q 236 663 226 619 q 241 710 240 682 q 238 753 242 738 q 213 803 231 781 q 164 825 194 825 q 141 822 153 825 q 122 811 129 818 l 117 807 l 124 793 q 131 777 131 782 q 126 767 132 772 q 117 761 121 761 q 106 767 114 761 q 97 781 103 769 q 84 805 90 792 q 73 829 78 818 q 68 844 68 840 q 81 857 68 857 q 97 844 92 857 q 103 836 101 836 l 107 839 q 113 842 110 840 q 118 844 115 843 q 151 856 138 854 q 186 857 165 857 q 264 832 229 857 q 307 763 299 807 q 310 706 313 739 q 296 644 307 672 q 267 588 285 614 q 222 535 250 563 l 196 508 l 208 507 q 273 494 251 503 q 317 463 294 485 q 381 342 368 411 q 356 140 404 233 q 221 17 301 35 q 198 13 211 14 q 174 11 185 11 q 156 13 160 11 z "},"4":{"ha":399,"x_min":26,"x_max":372,"o":"m 229 18 q 229 40 217 28 l 235 44 l 233 69 q 233 106 233 79 q 231 171 232 133 q 228 255 229 208 q 226 351 228 301 q 222 426 225 426 q 202 425 219 426 q 163 422 185 424 q 119 420 140 421 q 89 419 99 419 q 51 422 61 419 q 33 431 40 424 q 28 441 29 435 q 28 459 26 447 q 36 492 31 471 q 51 547 42 513 q 82 651 68 603 q 111 757 96 700 q 125 810 119 792 q 134 838 131 829 q 141 849 138 847 q 150 850 144 850 q 158 819 167 850 q 153 794 157 815 q 142 747 149 774 q 131 701 136 722 q 119 658 125 681 q 106 611 113 636 q 89 553 99 586 q 67 478 72 496 q 63 457 63 461 q 66 453 63 454 q 85 453 69 453 q 114 453 94 453 q 154 456 133 454 q 193 458 175 457 q 215 460 211 460 l 224 461 l 222 513 q 222 579 222 536 q 221 667 221 622 q 222 749 221 711 q 222 800 222 786 l 224 828 l 218 828 q 203 843 203 828 q 210 855 204 853 q 244 860 217 857 q 278 860 257 860 q 315 861 299 861 q 349 861 340 861 q 360 858 357 861 q 365 840 371 850 q 346 829 361 831 l 336 828 l 336 779 q 337 483 336 597 q 340 325 338 368 q 342 267 340 303 q 344 193 343 231 q 345 122 344 156 q 346 69 346 88 l 346 53 l 353 53 q 367 45 363 53 q 368 29 372 38 q 333 19 363 21 q 285 18 317 19 q 243 15 254 17 q 240 15 240 15 q 238 14 239 14 q 229 18 233 14 z "},"5":{"ha":444,"x_min":28,"x_max":417,"o":"m 165 15 q 93 63 121 26 q 65 144 65 100 q 65 160 64 157 q 69 168 67 164 q 81 174 75 174 q 92 168 88 174 q 95 160 94 165 q 99 143 96 156 q 112 95 100 124 q 146 63 124 67 q 154 61 149 61 q 191 70 172 61 q 227 92 210 79 q 258 122 244 106 q 281 153 272 139 q 294 185 288 164 q 303 222 300 206 q 306 278 306 242 q 303 333 306 314 q 222 496 286 439 q 61 581 157 553 q 31 600 38 588 q 28 615 28 604 q 28 667 28 626 q 28 730 28 692 q 29 799 28 768 q 31 859 31 847 q 33 874 31 871 q 59 879 36 876 q 109 884 82 882 q 161 888 136 886 q 194 889 186 889 l 242 889 l 242 897 q 257 914 244 914 q 268 910 263 914 l 272 904 l 269 857 q 266 811 268 819 q 256 800 264 803 q 238 811 242 797 q 237 820 238 814 q 238 835 236 826 l 239 854 l 225 854 q 178 854 201 854 q 153 853 154 854 q 151 829 151 851 q 149 778 150 807 q 147 721 147 749 q 147 682 147 693 q 151 651 150 653 q 160 644 153 649 q 178 635 168 640 q 258 590 229 608 q 314 550 288 572 q 358 509 340 528 q 386 472 375 490 q 403 433 397 453 q 414 385 410 413 q 416 355 415 372 q 416 318 417 338 q 415 281 415 299 q 411 251 414 264 q 387 167 404 210 q 342 91 369 125 q 278 35 315 57 q 193 14 240 14 q 178 14 186 14 q 165 15 171 14 z "},"6":{"ha":400,"x_min":29,"x_max":374,"o":"m 201 13 q 125 61 156 24 q 75 147 94 99 q 46 245 56 194 q 32 335 36 296 q 30 366 31 347 q 29 406 29 385 q 29 445 29 426 q 31 476 29 464 q 43 579 33 521 q 73 694 53 638 q 124 799 93 751 q 200 867 154 846 q 231 876 217 874 q 275 879 246 879 l 311 879 l 313 892 q 318 910 314 903 q 328 913 321 913 q 342 901 339 913 q 342 879 344 896 q 340 858 340 872 q 338 829 339 843 q 337 800 338 806 q 333 792 336 794 q 321 786 328 786 q 310 792 315 786 q 306 800 307 796 q 307 822 306 804 q 306 845 307 842 q 294 849 306 849 l 285 849 l 271 849 l 260 838 q 228 793 244 822 q 200 735 211 764 q 185 667 193 713 q 174 571 178 621 q 171 526 172 553 q 169 473 169 500 q 168 421 168 446 q 169 379 168 396 q 175 324 172 351 q 179 294 178 296 q 189 299 179 294 q 228 318 200 310 q 271 326 256 326 q 350 286 321 326 q 370 194 374 254 q 339 76 367 133 q 294 26 321 40 q 231 11 268 11 q 215 11 222 11 q 201 13 207 11 m 285 71 q 317 108 303 76 q 336 183 332 144 q 332 249 340 222 q 308 281 325 269 q 269 293 292 293 q 254 292 260 293 q 233 285 246 290 q 210 273 221 279 q 191 260 199 267 q 185 251 183 254 q 186 243 185 249 q 189 231 188 238 q 236 83 207 131 q 264 69 244 74 q 268 69 267 69 q 272 68 269 68 q 278 69 275 68 q 285 71 281 69 z "},"7":{"ha":378,"x_min":28,"x_max":350,"o":"m 29 824 q 33 870 31 856 q 38 888 35 885 q 49 892 42 892 q 58 888 54 892 q 63 871 63 885 q 62 860 61 861 q 65 858 63 858 q 113 868 79 863 q 185 878 147 874 q 256 885 222 882 q 306 888 290 888 q 328 887 324 888 q 338 883 333 886 q 349 865 349 876 q 343 821 350 853 q 335 774 340 808 q 326 704 331 740 q 315 627 321 668 q 306 565 308 586 q 271 333 286 449 q 249 100 256 218 q 247 74 247 86 q 244 58 246 61 l 244 50 l 251 50 q 272 43 265 50 q 275 26 279 36 q 265 17 272 19 q 240 15 258 15 q 225 16 233 15 q 213 17 217 17 q 187 17 210 17 q 136 18 164 18 l 68 19 l 63 25 q 63 46 50 36 q 85 50 67 50 l 101 50 l 103 76 q 123 297 110 186 q 150 517 136 408 q 194 828 175 746 l 199 846 l 194 846 q 178 844 192 844 q 147 840 164 843 q 92 833 115 836 q 63 828 68 829 q 60 823 60 826 q 60 801 60 819 q 60 778 61 783 q 57 771 60 774 q 46 767 53 767 q 35 771 39 767 q 29 785 31 775 q 29 824 28 796 z "},"8":{"ha":456,"x_min":18,"x_max":428,"o":"m 140 13 q 113 20 129 15 q 86 32 96 25 q 63 52 75 39 q 44 78 51 65 q 36 221 18 131 q 90 376 50 304 q 178 517 131 449 q 168 532 178 519 q 107 675 122 604 q 101 736 100 703 q 110 796 103 769 q 169 894 125 854 q 276 935 214 935 q 329 917 306 932 q 364 875 353 901 q 375 807 376 847 q 357 721 374 767 q 335 668 350 697 q 306 617 321 639 l 290 593 l 313 571 q 385 477 360 521 q 422 385 411 433 q 427 331 426 365 q 425 278 428 297 q 394 181 415 229 q 342 95 374 133 q 266 33 310 57 q 168 10 222 10 q 140 13 157 10 m 175 67 q 257 133 225 86 q 304 228 289 179 q 309 248 308 240 q 310 278 310 256 q 309 307 310 299 q 306 325 308 315 q 268 397 297 356 q 251 422 261 408 q 233 447 242 435 q 217 465 224 458 q 210 471 211 472 q 200 454 208 469 q 180 419 192 439 q 158 378 168 399 q 142 347 147 358 q 78 136 82 231 q 89 79 78 97 q 142 61 100 61 q 175 67 163 61 m 265 638 q 292 699 281 665 q 310 761 303 733 q 313 819 315 788 q 303 869 311 850 q 285 893 296 889 q 254 897 274 897 q 238 895 243 896 q 221 888 232 894 q 177 853 197 876 q 151 807 157 831 q 149 781 149 796 q 153 756 150 765 q 197 685 161 724 q 213 669 203 679 q 231 648 222 658 q 248 631 240 638 q 257 624 256 624 q 265 638 258 624 z "},"9":{"ha":400,"x_min":28,"x_max":371,"o":"m 63 -12 q 58 18 54 -7 q 60 40 60 25 q 61 68 61 54 q 63 98 63 92 q 67 107 64 104 q 78 111 71 111 q 90 106 86 111 q 94 97 93 101 q 93 75 94 93 q 93 52 92 56 q 110 49 94 49 l 115 49 l 129 49 l 140 60 q 204 185 189 113 q 226 326 219 257 q 229 372 228 346 q 231 426 231 399 q 231 477 231 453 q 229 518 231 501 q 225 574 228 546 q 221 604 222 603 l 218 603 q 211 599 217 601 q 172 578 196 586 q 129 571 149 571 q 50 611 79 571 q 29 684 31 638 q 44 783 28 731 q 89 858 61 829 q 168 888 117 888 q 190 886 179 888 q 210 882 201 885 q 280 830 251 868 q 326 745 308 792 q 354 649 344 699 q 368 563 364 600 q 370 531 369 550 q 371 492 371 513 q 371 453 371 472 q 369 421 371 433 q 357 318 367 376 q 327 203 347 260 q 276 99 307 146 q 200 31 246 51 q 168 21 182 24 q 125 18 154 18 l 89 18 l 88 6 q 83 -8 86 -1 q 72 -15 81 -15 q 63 -12 68 -15 m 147 607 q 167 614 156 608 q 190 626 179 619 q 208 638 201 632 q 215 647 215 644 q 210 685 215 658 q 194 742 204 713 q 174 795 185 771 q 150 825 163 819 q 128 829 138 829 q 100 817 111 829 q 81 786 89 804 q 69 750 74 768 q 64 719 65 732 q 63 682 61 703 q 68 649 64 661 q 92 617 75 629 q 129 606 108 606 q 147 607 142 606 z "},"\u0000":{"ha":0,"x_min":0,"x_max":0,"o":""},"\r":{"ha":304,"x_min":0,"x_max":0,"o":""}," ":{"ha":304,"x_min":0,"x_max":0,"o":""},"A":{"ha":614,"x_min":28,"x_max":589,"o":"m 549 -37 q 527 -37 542 -37 q 497 -35 513 -36 q 459 -30 465 -32 q 453 -19 453 -28 q 476 -4 453 -4 l 493 -3 l 492 3 q 489 17 492 6 q 483 43 486 28 q 476 82 482 50 q 463 149 471 114 q 450 214 456 185 q 443 244 444 243 l 425 244 q 376 244 407 244 q 315 244 344 244 q 263 242 285 243 q 240 240 240 242 q 231 205 240 240 q 212 128 222 169 q 193 50 201 86 q 185 11 185 14 q 194 8 185 8 q 217 -1 214 8 q 213 -21 221 -14 q 199 -24 210 -24 q 182 -24 192 -24 q 154 -22 172 -24 q 109 -22 133 -22 q 74 -21 85 -21 l 40 -21 q 28 -7 28 -21 q 42 7 28 4 q 46 10 44 8 q 49 24 47 13 q 67 103 51 40 q 108 255 83 165 q 160 450 132 344 q 218 657 189 556 q 235 713 228 689 q 243 742 242 738 q 243 753 246 750 q 232 767 232 756 q 251 782 232 782 q 290 783 267 782 q 353 785 314 783 l 401 786 l 407 782 q 413 769 413 778 q 396 753 413 754 q 388 750 388 753 l 389 747 q 390 744 389 746 q 390 740 390 743 q 399 713 393 735 q 411 667 404 692 q 424 618 418 642 q 432 583 431 594 q 440 552 435 572 q 450 513 444 532 q 460 470 454 493 q 468 432 465 447 q 478 389 472 417 q 492 335 485 361 q 508 260 499 306 q 527 169 518 215 q 544 82 536 122 q 556 21 551 42 q 560 3 556 11 q 569 -8 563 -7 q 585 -20 581 -11 q 581 -36 589 -29 q 571 -39 578 -39 q 563 -39 568 -39 q 549 -37 557 -39 m 325 276 q 363 278 342 278 q 400 278 385 278 l 436 278 l 435 283 q 426 322 433 288 q 407 410 418 357 q 394 467 401 435 q 383 518 388 499 q 358 626 364 601 q 350 651 351 651 q 329 579 339 615 q 310 513 321 549 q 292 449 300 478 q 281 408 288 436 q 266 350 274 379 q 253 298 258 321 q 247 274 247 275 l 249 274 q 251 272 249 272 q 258 273 254 272 q 267 274 261 274 q 291 274 274 274 q 325 276 308 275 z "},"B":{"ha":428,"x_min":28,"x_max":408,"o":"m 40 -54 q 28 -42 28 -50 q 43 -24 28 -28 q 50 -17 51 -22 l 50 390 l 50 792 l 42 792 q 28 806 28 792 q 111 835 28 835 q 137 835 125 835 q 153 833 149 835 q 201 826 193 829 q 214 821 204 825 q 304 767 260 807 q 371 686 349 728 q 397 536 408 615 q 381 461 390 488 q 346 397 372 435 q 257 307 307 338 q 247 299 249 303 q 249 296 244 296 q 270 284 254 296 q 297 261 286 272 q 334 208 321 238 q 347 147 347 179 q 315 56 347 94 q 237 -6 283 18 q 137 -42 190 -31 q 40 -54 83 -54 m 189 10 q 251 60 222 26 q 281 151 288 101 q 229 236 274 200 q 203 254 218 244 q 186 264 189 264 q 183 215 183 264 q 179 107 181 163 q 176 29 178 51 l 176 4 q 189 10 175 4 m 206 318 q 242 341 221 322 q 278 381 263 360 q 313 456 301 417 q 321 543 324 494 q 301 642 318 601 q 247 724 283 682 q 218 751 235 736 q 199 764 201 765 q 197 739 199 763 q 194 678 196 715 q 192 597 193 642 q 189 507 190 551 q 187 424 188 463 q 186 361 186 385 l 186 317 l 193 317 q 199 317 196 317 q 206 318 203 317 z "},"C":{"ha":476,"x_min":26,"x_max":449,"o":"m 233 -110 q 99 24 156 -87 q 44 194 61 99 q 29 388 26 290 q 54 576 32 486 q 118 728 76 665 q 165 781 136 754 q 225 814 193 807 q 240 817 232 817 q 256 817 247 817 q 273 817 265 817 q 286 814 281 817 q 310 806 297 811 q 329 796 322 800 q 338 792 336 792 q 340 807 338 793 q 356 832 342 831 q 372 811 372 832 q 370 783 372 803 q 365 744 368 764 q 360 708 363 724 q 357 689 358 692 q 344 683 353 683 l 339 683 q 330 693 332 686 q 331 724 328 700 q 332 751 333 747 q 324 760 331 756 q 308 763 315 763 q 283 749 294 763 q 253 700 271 735 q 201 559 221 636 q 176 402 182 482 q 179 243 171 322 q 211 97 188 164 q 225 64 215 85 q 246 22 235 43 q 271 -16 257 1 q 297 -40 285 -33 q 306 -42 300 -42 q 317 -44 311 -43 l 325 -44 q 340 -40 332 -44 q 363 -22 347 -37 q 378 -4 378 -7 q 365 17 378 -3 q 364 54 344 46 q 369 56 365 56 q 387 40 374 56 q 414 5 400 25 q 438 -33 428 -15 q 449 -57 449 -51 q 435 -72 449 -72 q 424 -68 428 -72 q 410 -49 419 -64 q 403 -37 404 -40 q 399 -33 400 -35 q 394 -36 399 -28 q 349 -84 375 -64 q 296 -111 322 -104 q 269 -114 282 -114 q 250 -113 260 -114 q 233 -110 240 -112 z "},"D":{"ha":535,"x_min":28,"x_max":507,"o":"m 40 -81 q 29 -67 31 -78 q 56 -44 28 -53 q 76 -37 72 -40 q 78 -35 78 -37 q 79 -23 79 -32 q 78 4 79 -14 q 78 53 78 22 q 78 113 78 71 q 77 209 78 154 q 76 329 76 264 q 74 460 75 394 q 73 583 74 525 q 72 685 72 642 q 71 755 71 729 q 71 781 71 781 q 45 784 60 781 q 31 801 31 788 q 44 817 31 814 q 201 791 124 817 q 343 717 279 765 q 451 602 407 669 q 504 453 494 535 q 506 395 507 429 q 500 338 504 361 q 443 195 483 261 q 346 76 403 129 q 220 -15 289 24 q 78 -75 151 -53 q 57 -81 64 -79 q 47 -82 50 -82 q 40 -81 42 -82 m 261 53 q 356 177 324 104 q 400 329 388 250 q 407 411 407 365 q 401 490 407 457 q 358 625 389 567 q 283 714 328 683 q 254 730 272 721 q 233 739 236 739 q 232 706 231 739 q 232 668 232 699 q 233 590 232 638 q 234 483 233 543 q 235 358 235 424 q 235 235 235 293 q 235 135 235 178 q 236 66 236 92 q 236 40 236 40 q 243 40 238 36 q 261 53 250 43 z "},"E":{"ha":378,"x_min":25,"x_max":350,"o":"m 324 -93 q 315 -65 315 -87 q 315 -57 315 -58 q 307 -56 314 -56 q 273 -57 304 -56 q 201 -61 242 -58 q 144 -65 165 -64 q 113 -65 124 -65 q 94 -63 97 -65 q 89 -58 92 -61 q 85 -27 88 -57 q 82 40 83 3 q 80 110 81 76 q 79 153 79 143 l 78 161 l 60 160 q 51 159 54 160 q 46 158 49 158 q 36 161 42 158 q 31 181 25 171 q 38 188 33 186 q 57 190 42 189 q 69 191 64 190 q 75 193 75 192 q 75 258 76 194 q 68 465 74 322 q 65 572 67 521 q 63 665 64 624 q 60 731 61 706 q 58 763 58 757 q 60 793 57 786 q 71 803 63 800 q 119 803 82 803 q 198 805 157 804 q 272 806 239 806 q 308 808 306 807 l 315 808 l 315 826 q 319 847 315 843 q 331 854 324 854 q 340 849 335 854 q 344 837 343 844 q 346 801 344 829 q 347 765 347 783 q 349 738 347 747 q 349 718 350 722 q 344 710 349 714 q 333 704 339 704 q 321 710 329 704 q 317 719 318 714 q 315 744 315 724 l 314 772 l 251 772 q 208 771 226 771 q 188 769 189 771 q 189 728 188 769 q 192 624 190 686 q 195 491 193 563 q 199 358 197 419 q 203 254 201 296 q 204 213 204 213 q 207 213 206 213 q 214 211 208 211 q 225 212 219 211 q 238 213 231 213 l 271 214 l 271 232 q 275 253 271 250 q 288 260 282 260 q 301 249 297 260 q 304 228 303 244 q 307 194 306 213 q 308 160 308 175 q 307 142 308 144 q 292 132 301 132 q 276 145 278 132 q 274 169 274 158 l 272 179 l 239 178 q 215 176 225 176 q 206 175 206 176 q 206 144 206 175 q 208 75 207 113 q 210 6 208 38 q 211 -25 211 -25 q 231 -25 217 -25 q 261 -24 246 -25 q 290 -23 276 -24 q 306 -21 303 -22 q 310 -17 310 -19 q 311 0 311 -14 q 313 22 311 17 q 322 29 315 28 q 324 30 324 29 q 326 31 325 31 q 340 21 338 31 q 341 13 340 19 q 342 -3 342 6 q 344 -27 343 -12 q 346 -53 344 -42 q 348 -84 349 -76 q 340 -94 347 -92 q 332 -96 338 -96 q 324 -93 326 -96 z "},"F":{"ha":368,"x_min":22,"x_max":340,"o":"m 60 -93 q 49 -76 49 -87 q 65 -62 49 -65 q 90 -58 82 -58 q 90 -31 90 -57 q 89 35 90 -4 l 86 126 l 64 125 l 51 125 q 31 135 33 125 q 39 156 22 147 q 49 158 42 157 q 64 160 57 158 q 85 164 81 160 q 83 246 83 201 q 81 335 82 285 q 78 442 81 385 q 73 633 75 568 q 71 725 71 697 q 72 756 71 753 q 76 761 74 758 q 90 768 82 768 q 122 771 94 769 q 184 773 150 772 q 249 774 218 774 q 288 775 279 775 l 301 776 l 301 797 q 302 817 301 813 q 306 824 303 821 q 318 829 311 829 q 331 824 326 829 q 335 805 333 821 q 338 769 338 789 q 340 731 339 749 q 340 706 340 713 q 340 691 340 694 q 335 685 339 688 q 324 679 329 679 q 317 682 322 679 q 306 710 306 689 q 306 720 306 714 q 304 731 306 726 l 303 740 l 250 739 q 211 738 226 739 q 194 736 196 738 q 195 694 194 736 q 197 590 196 653 q 201 456 199 528 q 205 321 203 383 q 208 216 207 258 q 211 174 210 174 l 222 175 q 236 176 229 175 q 250 176 243 176 l 289 179 l 289 194 q 292 214 289 211 q 306 222 294 222 q 311 221 310 222 q 320 210 318 218 q 325 171 322 203 q 328 124 328 131 q 322 111 328 117 q 311 106 317 106 q 300 111 308 106 q 293 131 294 117 q 290 144 290 144 q 251 142 268 143 q 224 140 236 140 q 211 138 213 139 q 211 110 211 138 q 212 49 211 82 q 214 -14 213 15 q 215 -47 215 -43 q 219 -51 215 -50 q 238 -51 222 -51 q 258 -52 254 -51 q 265 -57 261 -53 q 267 -75 272 -67 q 263 -81 265 -79 q 250 -85 260 -83 q 221 -87 240 -86 q 165 -90 201 -89 q 113 -92 139 -92 q 60 -93 86 -93 z "},"G":{"ha":454,"x_min":28,"x_max":428,"o":"m 222 -72 q 153 -42 181 -62 q 106 8 125 -21 q 76 72 88 38 q 56 144 64 107 q 34 269 40 201 q 29 410 28 338 q 38 529 31 482 q 60 629 44 576 q 138 769 88 718 q 246 819 188 819 q 268 818 261 819 q 319 797 299 814 q 356 756 339 779 q 368 767 360 756 q 378 776 371 769 q 390 782 385 782 q 403 774 399 782 q 403 760 407 767 q 394 749 401 758 q 377 728 388 740 q 356 705 367 717 q 336 685 344 693 q 319 676 331 676 q 310 681 314 676 q 322 717 300 690 q 332 731 332 726 q 323 746 332 733 q 307 763 314 758 q 292 771 297 771 q 263 751 279 771 q 233 707 247 732 q 209 658 219 682 q 196 624 199 633 q 174 542 182 583 q 164 442 167 500 q 163 398 163 422 q 163 349 163 374 q 164 303 163 325 q 167 267 165 281 q 185 149 174 204 q 208 67 197 94 q 248 10 224 35 q 296 -19 272 -15 q 313 -15 307 -19 q 326 -4 319 -11 q 388 125 375 38 q 390 147 389 133 q 390 176 390 161 q 390 204 390 190 q 388 225 389 218 q 377 267 385 240 q 358 318 369 293 q 328 362 346 343 q 290 381 311 381 l 281 382 l 269 361 q 254 337 258 342 q 243 332 250 332 q 232 337 238 332 q 226 347 226 342 q 235 366 226 349 q 256 406 244 383 q 279 449 268 428 q 296 478 290 469 q 313 488 301 488 q 324 482 319 488 q 314 443 331 474 q 301 418 304 421 q 314 411 301 415 q 367 369 342 403 q 407 290 392 335 q 423 215 418 257 q 425 144 428 172 q 388 18 418 75 q 293 -67 358 -39 q 274 -72 282 -71 q 254 -74 267 -74 l 243 -74 q 222 -72 228 -74 z "},"H":{"ha":542,"x_min":26,"x_max":517,"o":"m 221 -64 q 161 -60 190 -61 q 111 -58 132 -58 q 86 -60 92 -58 q 72 -61 81 -61 q 58 -53 63 -61 q 57 -43 54 -47 q 86 -28 61 -29 l 104 -28 l 103 61 q 103 123 103 97 q 101 149 103 149 l 97 149 l 72 149 q 60 147 65 147 q 50 147 54 147 q 31 154 35 147 q 33 175 26 165 q 42 178 36 178 q 69 181 49 179 q 82 182 76 182 q 92 182 88 182 l 101 183 q 101 228 101 183 q 101 338 101 272 q 99 480 100 403 q 97 622 99 557 q 95 731 96 688 q 94 775 94 775 q 86 774 94 776 l 81 774 q 65 783 69 774 q 71 800 61 793 q 88 806 76 804 q 126 811 100 808 q 201 814 164 814 q 276 814 239 814 q 290 801 288 811 q 285 785 292 792 q 278 781 282 782 q 258 781 274 781 l 236 781 l 235 664 q 234 605 235 640 q 233 529 233 569 q 232 447 232 489 q 232 368 232 406 l 231 189 l 236 190 q 266 192 239 190 q 329 196 293 193 q 392 199 365 197 q 419 201 419 200 q 420 217 419 201 q 422 260 421 233 q 422 324 422 288 q 422 401 422 360 q 423 518 422 469 q 424 603 424 567 q 426 665 425 639 q 429 713 428 690 l 431 732 l 383 729 l 379 735 q 375 743 375 743 q 378 751 375 746 q 383 757 381 756 q 398 760 385 758 q 428 763 411 761 q 462 767 446 765 q 486 768 478 768 q 507 753 507 768 q 482 736 507 738 q 469 734 475 735 q 463 733 464 733 q 459 659 460 731 q 458 428 458 588 l 457 203 l 481 203 q 502 202 499 203 q 508 197 506 201 q 513 183 514 190 q 503 174 511 176 q 493 172 500 172 q 476 169 486 171 l 456 168 l 457 100 q 459 52 458 72 q 460 31 460 32 q 481 29 460 29 q 499 28 496 29 q 506 24 503 26 q 506 1 517 13 l 500 -4 l 389 -1 l 383 4 q 385 22 376 14 q 407 29 390 28 l 424 31 l 422 99 q 422 146 422 126 q 421 167 421 165 q 391 165 421 167 q 326 162 361 164 q 260 158 290 160 q 231 156 231 156 q 231 129 231 143 q 229 100 229 117 q 229 64 229 83 l 228 -29 l 251 -32 q 272 -34 268 -33 q 281 -40 276 -35 q 286 -50 286 -46 q 267 -68 286 -68 q 252 -67 265 -68 q 221 -64 239 -67 z "},"I":{"ha":283,"x_min":21,"x_max":256,"o":"m 196 -19 q 169 -19 190 -19 q 124 -19 147 -19 q 81 -17 100 -18 q 61 -17 63 -17 q 54 -5 54 -14 q 61 7 54 4 q 81 11 69 11 q 96 14 94 14 q 96 21 96 17 q 94 36 94 25 q 92 84 93 44 q 89 171 90 124 q 85 322 88 258 q 81 456 83 386 q 78 525 79 478 q 78 617 78 572 l 78 726 l 57 726 q 38 727 42 726 q 32 731 35 728 q 35 753 21 742 q 40 755 38 754 q 53 756 43 756 q 83 756 63 756 q 139 756 103 756 l 238 756 l 243 751 q 243 729 253 742 l 238 724 l 182 724 l 182 696 q 182 665 182 685 q 183 631 182 646 q 185 574 185 615 q 188 493 186 533 q 190 406 189 451 q 192 336 190 360 q 200 71 192 203 q 202 37 201 51 q 203 19 203 22 l 203 14 l 222 13 q 249 8 242 11 q 256 -6 256 4 q 253 -14 256 -11 q 245 -20 250 -18 q 229 -22 240 -22 q 215 -22 224 -22 q 196 -19 207 -21 z "},"J":{"ha":476,"x_min":29,"x_max":453,"o":"m 168 -46 q 113 -15 136 -37 q 72 37 89 7 q 47 100 56 67 q 33 163 38 133 q 31 190 32 174 q 29 225 29 207 q 30 260 29 243 q 32 286 31 276 q 114 475 49 414 l 129 488 l 111 508 q 99 525 104 518 q 93 535 94 532 q 103 554 90 547 q 106 555 104 554 q 108 556 107 556 q 117 552 113 556 q 132 537 122 549 q 158 504 142 525 q 201 449 175 483 q 215 426 213 433 q 213 413 218 419 q 201 407 207 407 q 193 410 199 407 q 184 417 190 410 q 169 436 178 425 l 151 460 l 144 456 q 107 413 124 442 q 79 348 90 385 q 64 269 68 311 q 64 186 60 228 q 97 64 72 111 q 129 19 108 43 q 160 -4 150 -4 q 181 14 167 -4 q 203 50 196 32 q 218 99 211 72 q 231 165 225 126 q 241 258 236 204 q 250 385 246 311 q 256 528 254 447 q 254 685 257 610 q 251 752 251 724 q 250 782 250 781 q 244 785 250 785 q 218 785 238 785 l 199 785 q 187 785 189 785 q 182 788 185 786 q 182 808 172 799 q 216 815 186 813 q 283 819 246 818 q 356 821 321 821 q 407 821 392 821 q 433 820 429 821 q 440 817 438 819 q 447 797 453 810 q 438 788 444 790 q 413 785 432 786 l 389 783 l 392 710 q 394 617 393 671 q 394 510 394 563 q 394 415 394 458 q 393 356 394 372 q 382 241 389 290 q 366 153 375 192 q 344 85 357 115 q 314 29 331 56 q 256 -28 290 -7 q 188 -49 221 -49 q 178 -48 182 -49 q 168 -46 174 -47 z "},"K":{"ha":478,"x_min":24,"x_max":454,"o":"m 397 -26 q 390 -10 392 -22 q 389 8 389 1 q 378 24 388 17 q 283 119 319 61 q 214 239 246 178 l 194 275 l 194 240 q 194 196 194 226 q 195 132 194 165 q 197 72 196 99 q 199 38 199 44 l 200 26 l 208 26 q 218 26 213 26 q 228 25 224 25 q 246 15 242 22 q 243 -3 250 7 q 233 -7 239 -7 q 186 -7 210 -7 q 139 -6 163 -7 q 92 -5 108 -6 q 67 -3 75 -4 q 58 1 60 -1 q 57 8 57 4 q 74 24 57 22 q 85 26 85 26 q 85 51 85 28 q 83 107 85 75 q 81 185 82 140 q 79 260 79 229 q 77 315 78 292 q 76 342 76 339 q 76 359 76 343 q 74 401 75 375 q 73 463 74 428 q 72 535 72 497 q 72 668 72 613 q 69 726 71 724 l 69 733 l 53 733 q 38 735 42 735 q 32 739 35 736 q 33 758 24 749 l 39 764 l 121 763 q 185 762 165 763 q 208 760 206 761 q 218 748 217 756 q 213 733 219 740 q 194 729 208 729 l 182 729 l 182 699 q 184 665 183 686 q 188 625 185 643 q 190 565 189 607 q 192 482 190 524 q 193 444 193 463 q 193 411 193 426 q 194 382 194 396 q 199 392 196 386 q 203 401 201 396 q 208 414 206 407 q 240 478 215 428 q 294 586 265 528 q 344 685 324 644 q 364 728 364 726 q 360 728 361 728 q 347 726 353 728 l 339 726 q 319 735 326 726 q 322 750 317 743 q 339 756 325 753 q 370 760 353 758 q 404 763 388 763 q 428 764 421 764 q 440 761 435 764 q 447 742 454 754 q 421 732 444 732 l 406 732 l 394 710 q 374 669 389 699 q 340 603 358 640 q 300 524 321 565 q 261 446 279 482 q 231 384 243 410 q 215 351 218 358 l 203 325 l 210 311 q 242 249 222 286 q 287 175 263 213 q 337 106 311 138 q 386 60 363 74 q 388 64 386 61 l 388 72 q 403 94 389 94 q 415 88 413 94 q 418 54 417 82 q 419 25 418 40 q 419 1 419 10 q 420 -17 421 -14 q 417 -24 419 -19 q 406 -28 413 -28 q 397 -26 400 -28 z "},"L":{"ha":422,"x_min":21,"x_max":394,"o":"m 368 -85 q 358 -50 360 -79 l 358 -35 l 329 -36 q 279 -37 317 -36 q 201 -40 242 -37 q 156 -42 174 -42 q 126 -42 138 -42 q 97 -40 103 -42 q 89 -32 92 -37 q 87 -24 88 -29 q 86 1 86 -18 q 85 58 86 21 q 85 160 85 94 q 85 250 85 197 q 84 360 85 303 q 83 477 83 418 q 83 586 83 536 l 83 829 l 61 829 q 52 828 56 829 q 46 828 49 828 q 39 828 40 828 q 35 832 38 829 q 32 857 21 843 q 65 863 35 860 q 133 869 96 867 q 207 872 171 871 q 257 874 243 874 q 267 873 265 874 q 271 871 269 872 q 278 851 282 863 q 268 842 275 844 q 240 839 261 840 q 214 836 217 839 l 214 415 l 213 -3 l 244 -3 q 278 -2 257 -3 q 315 -1 299 -1 l 357 0 l 357 18 q 358 35 357 31 q 363 42 358 39 q 374 47 368 47 q 385 42 381 47 q 390 28 389 38 q 393 -26 390 19 q 394 -62 394 -53 q 393 -76 394 -72 q 376 -87 386 -87 q 368 -85 374 -87 z "},"M":{"ha":643,"x_min":24,"x_max":615,"o":"m 200 -32 q 156 -31 185 -31 q 100 -31 126 -31 q 72 -31 83 -31 q 53 -32 60 -32 q 39 -31 42 -32 q 33 -28 36 -31 q 32 -8 24 -18 q 53 -1 36 -6 l 61 0 l 61 147 q 61 223 61 178 q 61 320 61 268 q 62 426 61 372 q 63 528 63 481 q 63 621 63 576 q 65 701 64 665 q 65 759 65 736 q 65 788 65 782 q 69 814 65 813 q 85 820 72 818 q 115 824 99 822 q 147 825 131 825 q 169 825 163 825 q 201 813 189 825 q 209 782 201 811 q 228 703 217 753 q 256 588 240 654 q 290 447 272 522 q 324 306 308 372 q 351 191 339 240 q 370 113 363 142 q 378 83 378 83 q 388 132 378 82 q 422 307 399 182 q 431 353 426 326 q 439 394 436 379 q 447 437 442 411 q 457 483 453 463 q 466 528 461 503 q 474 571 471 554 q 482 615 476 588 q 492 664 488 642 q 506 735 500 708 q 516 779 513 763 q 521 803 519 796 q 524 811 522 810 q 538 819 531 819 q 551 813 544 819 l 556 807 l 554 408 l 554 8 l 606 8 l 611 1 q 615 -7 615 -3 q 603 -24 615 -21 q 586 -26 601 -25 q 551 -27 571 -26 q 515 -28 532 -28 q 490 -28 497 -28 q 475 -27 478 -28 q 469 -24 472 -26 q 471 1 458 -12 q 492 6 475 6 q 515 7 508 7 q 518 78 518 8 q 519 313 518 147 q 520 430 519 375 q 521 526 521 485 q 520 592 521 568 q 519 615 519 615 q 513 585 518 614 q 499 518 507 556 q 485 445 492 481 q 476 399 479 410 q 468 355 474 382 q 458 306 463 328 q 448 258 453 283 q 440 218 443 232 q 433 177 438 203 q 424 129 428 151 q 414 81 419 107 q 406 42 408 56 q 401 14 403 26 q 399 -3 399 1 q 381 -21 394 -21 q 374 -19 376 -21 q 365 -11 368 -18 q 358 17 365 -10 q 340 91 351 44 q 313 199 328 138 q 282 331 299 261 q 251 462 265 400 q 225 571 236 524 q 207 647 214 618 q 200 678 200 676 q 197 683 199 683 l 197 665 q 198 637 197 661 q 199 574 199 613 q 200 488 200 536 q 200 386 200 439 q 204 131 203 217 q 208 15 206 46 l 208 3 l 226 1 q 243 0 239 1 q 250 -4 247 -1 q 255 -21 257 -11 q 242 -33 253 -31 q 227 -33 239 -33 q 200 -32 215 -33 z "},"N":{"ha":547,"x_min":24,"x_max":524,"o":"m 200 -72 q 170 -71 189 -71 q 132 -71 151 -71 l 100 -71 q 44 -70 53 -71 q 33 -67 36 -69 q 32 -47 24 -57 q 38 -44 35 -44 q 53 -40 42 -43 l 61 -39 l 61 108 q 61 184 61 139 q 61 281 61 229 q 62 386 61 332 q 63 489 63 440 q 63 582 63 538 q 65 661 64 626 q 65 719 65 696 q 65 747 65 742 q 69 775 68 774 q 85 782 72 781 q 133 783 97 783 l 161 783 q 190 782 183 783 q 201 775 197 781 q 211 745 201 774 q 236 667 221 717 q 272 553 251 618 q 315 415 293 489 l 428 61 l 428 754 l 406 754 q 376 758 383 754 q 368 771 368 761 q 379 785 368 783 q 444 790 390 788 l 508 792 l 514 786 q 514 763 524 774 q 507 758 511 758 q 485 757 503 757 l 461 756 l 463 353 q 463 130 463 211 q 463 8 464 49 q 462 -44 463 -33 q 460 -58 461 -56 q 444 -69 454 -69 q 432 -62 438 -69 q 425 -44 431 -61 q 410 1 419 -28 q 388 66 400 29 q 364 144 376 103 q 301 346 331 253 q 250 508 272 439 q 215 617 228 576 q 203 658 203 657 q 199 653 203 664 q 197 641 197 647 q 197 624 196 635 q 198 595 197 619 q 199 533 199 571 q 200 448 200 496 q 200 347 200 400 q 201 199 200 263 q 203 92 203 136 q 206 19 204 47 q 208 -25 207 -10 l 208 -37 l 226 -37 q 243 -40 239 -39 q 250 -43 247 -40 q 255 -60 257 -50 q 242 -72 253 -69 l 233 -72 l 200 -72 z "},"O":{"ha":592,"x_min":28,"x_max":564,"o":"m 256 -51 q 163 -9 203 -43 q 97 72 124 25 q 54 171 69 118 q 32 269 39 224 q 29 308 31 283 q 28 358 28 332 q 29 410 28 385 q 32 449 31 435 q 125 711 53 607 q 215 799 165 769 q 313 829 264 829 q 407 801 365 829 q 478 730 449 772 q 526 637 508 688 q 553 542 544 586 q 561 484 560 506 q 564 418 563 463 q 556 308 564 364 q 532 199 549 253 q 488 97 515 146 q 421 11 461 49 q 352 -37 386 -21 q 271 -53 318 -53 q 256 -51 260 -53 m 332 -7 q 422 65 385 15 q 483 174 460 114 q 516 299 506 235 q 526 417 526 363 q 519 517 526 463 q 493 623 511 571 q 445 717 475 675 q 371 779 415 758 q 342 786 358 786 q 290 761 318 786 q 223 646 251 725 q 182 456 194 567 q 179 411 181 439 q 178 353 178 383 q 179 294 178 322 q 182 250 181 267 q 223 78 194 146 q 292 -11 251 11 q 303 -14 297 -14 q 332 -7 314 -14 z "},"P":{"ha":411,"x_min":25,"x_max":385,"o":"m 61 -46 q 53 -32 53 -43 q 59 -22 53 -28 q 71 -17 65 -17 q 79 -14 76 -17 q 81 -9 81 -12 q 83 4 82 -6 q 83 33 83 14 q 82 85 82 51 q 81 140 82 104 q 80 219 81 175 q 79 314 79 264 q 79 413 79 364 q 79 508 79 461 q 79 596 79 556 q 78 666 79 636 q 78 708 78 696 q 76 762 76 754 q 72 769 75 769 q 44 765 54 765 q 29 775 33 765 q 38 793 25 786 q 50 796 40 794 q 71 800 60 797 q 102 803 88 803 q 143 804 117 804 q 228 798 188 804 q 301 774 269 792 q 355 726 333 757 q 382 646 376 696 q 378 585 385 618 q 358 520 372 553 q 324 459 344 488 q 281 410 304 431 q 240 379 263 393 q 208 363 218 365 l 201 361 l 203 313 q 203 223 203 271 q 206 133 204 175 q 208 59 207 90 q 208 18 208 28 l 210 -11 l 218 -12 q 240 -24 236 -14 q 236 -43 247 -35 q 232 -45 233 -44 q 225 -46 231 -46 q 215 -45 221 -46 q 199 -44 210 -44 q 178 -42 188 -43 q 157 -42 168 -42 q 140 -42 149 -42 q 121 -43 132 -43 q 88 -45 101 -44 q 71 -47 74 -46 q 61 -46 64 -47 m 231 414 q 305 491 275 442 q 346 592 335 540 q 349 626 349 607 q 346 661 349 646 q 316 721 338 699 q 253 756 294 743 q 217 765 238 761 q 196 768 197 769 q 195 749 194 767 q 197 704 196 731 q 199 625 199 679 q 200 519 200 571 l 201 396 l 207 399 q 217 404 210 400 q 231 414 224 408 z "},"Q":{"ha":625,"x_min":29,"x_max":606,"o":"m 256 -44 q 163 -2 203 -36 q 97 78 124 32 q 54 178 69 125 q 32 276 39 231 q 30 315 31 290 q 29 366 29 339 q 30 418 29 393 q 32 457 31 443 q 125 719 56 619 q 313 836 208 836 q 407 808 365 836 q 478 738 449 781 q 526 644 508 694 q 553 550 544 594 q 558 518 557 532 q 561 491 560 504 q 563 463 563 478 q 563 425 563 447 q 563 387 563 403 q 562 358 563 371 q 559 331 561 344 q 554 300 557 318 q 517 165 543 229 q 454 56 490 100 q 448 47 451 50 q 444 42 444 43 q 457 35 450 39 q 485 19 471 26 l 525 0 l 588 0 l 592 -6 q 588 -32 606 -22 q 568 -34 585 -33 q 529 -35 551 -35 q 483 -37 507 -36 q 442 -37 458 -37 q 424 -37 431 -37 q 415 -36 417 -36 q 404 -21 404 -32 q 413 -7 404 -10 q 420 -5 414 -6 q 433 -3 426 -4 l 451 -3 l 418 15 l 408 6 q 344 -33 376 -19 q 271 -46 311 -46 q 256 -44 260 -46 m 324 -3 q 363 17 340 4 q 382 33 385 31 q 369 41 382 35 q 340 56 357 47 q 309 71 322 64 q 294 81 296 78 q 289 97 288 88 q 299 108 290 106 q 301 109 300 108 q 304 110 301 110 q 319 104 308 110 q 363 82 331 99 q 395 66 382 72 q 410 60 408 60 q 416 66 411 60 q 427 81 421 72 q 440 100 433 90 q 451 118 447 110 q 510 266 493 188 q 526 424 526 344 q 519 524 526 469 q 493 631 511 579 q 445 724 475 682 q 371 788 415 767 q 343 794 354 794 q 274 753 303 794 q 225 656 244 711 q 195 547 206 601 q 182 464 185 492 q 180 419 181 447 q 179 360 179 390 q 180 301 179 329 q 182 257 181 274 q 223 85 194 153 q 292 -4 251 18 q 304 -7 300 -7 q 324 -3 311 -7 z "},"R":{"ha":501,"x_min":28,"x_max":474,"o":"m 446 -37 q 441 -30 444 -35 q 435 -19 438 -25 q 428 -6 429 -6 q 424 -7 426 -6 q 414 -10 422 -7 q 388 -14 401 -14 q 348 -3 365 -14 q 318 22 331 7 q 297 57 306 38 q 282 94 289 76 q 258 148 271 128 q 233 168 244 168 l 229 168 l 229 125 q 229 85 229 107 q 231 49 229 63 l 232 14 l 243 15 q 247 16 246 15 q 251 17 249 17 q 272 6 268 17 q 267 -14 278 -6 q 243 -18 265 -17 q 193 -21 221 -19 q 140 -22 165 -22 q 107 -22 115 -22 q 69 -19 75 -22 q 63 -11 64 -17 q 64 1 61 -4 q 93 13 68 13 l 103 13 l 103 76 q 97 439 99 258 q 96 801 96 619 l 94 822 l 74 814 q 58 807 65 810 q 49 803 51 804 l 46 803 q 31 813 36 803 q 31 826 28 819 q 38 833 33 831 q 56 843 42 836 q 117 865 89 858 q 181 872 144 872 q 329 829 267 872 q 429 710 392 786 q 465 538 468 631 q 419 358 463 446 q 283 200 371 258 l 265 189 l 272 181 q 294 150 283 168 q 318 97 304 132 q 342 48 328 74 q 388 22 357 22 l 396 22 q 409 28 408 25 q 403 47 410 31 q 394 69 394 64 q 396 82 393 75 q 408 89 403 89 q 417 86 411 89 q 430 69 421 85 q 449 33 439 53 q 466 -3 458 14 q 474 -26 474 -21 q 457 -42 474 -42 q 446 -37 450 -42 m 250 221 q 317 298 289 243 q 359 423 344 353 q 372 569 374 493 q 350 711 371 646 q 254 826 319 806 q 240 831 247 829 q 229 833 232 833 l 222 835 l 222 781 q 223 724 222 771 q 224 615 224 678 q 226 481 225 551 q 227 350 226 410 q 228 250 228 290 q 229 210 229 210 l 231 210 q 233 211 232 211 q 250 221 239 217 z "},"S":{"ha":492,"x_min":26,"x_max":468,"o":"m 235 -85 q 187 -72 213 -81 q 139 -51 161 -64 q 101 -18 117 -37 q 82 28 85 1 l 81 40 l 60 40 q 35 44 39 40 q 28 60 26 51 q 40 72 29 69 q 75 74 44 74 l 104 74 q 151 73 140 74 q 165 69 161 72 q 172 56 172 64 q 165 42 172 47 q 139 39 161 39 l 117 39 l 118 31 q 144 -11 121 7 q 203 -35 167 -29 q 256 -29 228 -35 q 310 -12 285 -24 q 353 19 335 0 q 378 67 372 39 q 366 122 382 90 q 322 176 350 154 q 301 192 315 182 q 274 210 288 201 q 165 292 203 254 q 104 376 128 329 q 66 492 74 435 q 71 621 58 550 q 91 690 78 656 q 125 755 104 725 q 174 807 146 785 q 238 839 201 829 q 253 842 244 842 q 269 842 261 842 q 332 826 306 842 q 381 782 358 810 q 397 758 389 771 q 404 740 404 744 q 410 736 404 736 q 417 737 413 736 q 428 738 421 738 l 442 738 q 457 736 454 738 q 463 714 468 728 q 442 705 460 708 q 402 699 424 701 q 359 696 381 697 q 329 694 338 694 q 321 695 322 694 q 317 697 319 696 q 311 717 307 703 q 321 726 314 724 q 349 731 328 728 q 365 732 356 732 l 372 733 q 366 748 375 736 q 349 769 357 760 q 329 785 338 782 q 306 789 321 789 q 248 758 274 789 q 210 700 222 726 q 190 489 157 593 q 229 414 204 444 q 303 347 254 383 q 353 309 338 322 q 383 279 369 296 q 420 235 407 253 q 444 189 433 217 q 463 121 461 151 q 453 54 465 90 q 382 -45 433 -8 q 267 -85 331 -82 l 235 -85 z "},"T":{"ha":469,"x_min":28,"x_max":442,"o":"m 110 -14 q 104 6 100 -6 q 114 15 107 13 q 140 18 121 18 l 161 18 l 160 215 q 157 492 157 354 q 157 768 157 629 l 156 807 l 65 807 l 64 789 q 63 772 64 775 q 58 765 63 769 q 47 761 54 761 q 39 764 42 761 q 31 777 32 768 q 29 821 29 786 l 28 865 l 33 871 q 44 876 39 876 q 63 850 63 876 l 63 842 l 232 843 q 353 844 303 843 q 404 844 403 844 q 407 856 407 847 q 424 876 407 876 q 431 875 428 876 q 440 863 438 872 q 442 817 442 853 q 441 778 442 785 q 436 769 440 772 q 425 765 432 765 q 413 769 419 765 q 407 792 408 775 l 407 810 l 350 810 l 310 810 q 293 808 301 808 q 293 779 293 808 q 293 700 293 750 q 294 584 293 650 q 294 443 294 518 q 295 300 294 368 q 297 179 296 232 q 297 92 297 126 q 297 51 297 58 l 297 21 l 324 22 q 346 22 342 22 q 353 18 350 21 q 354 -7 365 6 l 349 -12 l 258 -14 q 182 -17 210 -17 q 139 -17 154 -17 q 118 -17 124 -17 q 110 -14 113 -17 z "},"U":{"ha":592,"x_min":24,"x_max":565,"o":"m 242 -36 q 144 28 186 -22 q 79 158 103 79 q 68 204 72 182 q 60 252 64 226 q 55 309 57 278 q 51 382 53 340 q 52 525 50 460 q 63 674 54 590 q 67 715 65 694 q 68 742 68 735 l 69 761 l 53 761 q 33 765 36 761 q 32 785 24 776 q 44 789 40 789 q 66 790 47 789 q 111 792 85 790 q 168 794 138 793 q 225 794 199 794 l 268 796 l 274 792 q 279 779 279 786 q 273 766 279 769 q 249 761 267 763 q 232 758 232 761 q 231 740 232 750 q 230 719 231 731 q 228 696 229 708 q 219 580 224 644 q 213 464 215 515 q 211 410 211 440 q 211 349 211 379 q 213 294 211 319 q 215 257 214 269 q 253 126 226 182 q 318 44 279 69 q 347 29 332 36 q 364 24 361 22 q 387 46 372 26 q 411 86 401 65 q 453 224 439 144 q 474 426 468 304 q 478 535 476 492 q 480 611 479 579 q 481 667 481 643 q 479 715 481 690 l 476 756 l 424 753 l 418 757 q 413 765 413 763 q 422 779 413 776 q 443 783 425 782 q 483 786 461 785 q 524 788 504 788 q 550 789 544 789 q 563 778 560 786 q 560 763 565 769 q 553 759 557 760 q 533 757 549 758 q 511 756 511 757 q 511 739 511 749 q 512 722 511 732 q 513 701 513 713 q 514 666 514 681 q 514 628 514 651 q 513 565 514 606 q 508 451 511 525 q 503 352 507 408 q 490 238 500 296 q 465 128 481 181 q 422 38 449 75 q 278 -39 372 -39 q 258 -38 267 -39 q 242 -36 249 -37 z "},"V":{"ha":578,"x_min":24,"x_max":550,"o":"m 32 771 l 38 776 l 83 778 q 140 778 103 778 q 208 779 176 779 q 243 780 229 779 q 267 781 257 781 q 286 780 282 781 q 292 776 290 779 q 296 758 300 771 q 286 749 293 751 q 260 747 279 747 l 238 747 l 239 742 q 249 687 239 739 q 274 563 260 635 q 319 324 301 415 q 347 179 336 232 q 364 92 358 119 q 368 117 364 92 q 378 186 372 142 q 393 290 385 231 q 411 417 401 350 l 458 744 l 436 744 q 417 747 421 746 q 408 751 413 747 q 408 774 397 763 l 413 779 l 475 779 q 540 776 529 779 q 550 763 550 774 q 543 748 550 751 q 514 744 536 744 l 493 744 l 492 739 q 488 706 492 738 q 476 623 483 675 q 458 501 468 571 q 438 354 449 432 q 417 207 426 276 q 399 85 407 138 q 387 3 392 33 q 382 -29 382 -28 q 369 -37 379 -36 q 317 -42 360 -39 q 276 -44 289 -44 q 257 -44 264 -44 q 249 -43 251 -44 q 244 -39 246 -40 q 240 -35 242 -37 q 233 -2 240 -33 q 216 82 226 29 q 192 206 206 135 q 161 356 178 276 l 85 742 l 65 742 q 40 744 46 743 q 32 749 35 744 q 32 771 24 760 z "},"W":{"ha":833,"x_min":22,"x_max":813,"o":"m 249 -43 q 240 -35 243 -40 q 234 -2 240 -33 q 217 83 228 29 q 192 206 207 136 q 163 356 178 276 l 85 742 l 65 742 q 41 744 46 743 q 32 749 36 744 q 33 771 22 760 l 38 776 l 83 778 q 140 778 103 778 q 210 779 176 779 q 244 780 231 779 q 267 781 258 781 q 286 780 282 781 q 293 776 290 779 q 296 758 300 769 q 287 749 293 751 q 261 747 281 747 l 238 747 l 239 742 q 250 687 240 739 q 274 563 260 635 q 319 323 301 415 q 347 179 338 231 q 361 110 357 128 q 365 92 365 92 q 369 117 365 92 q 378 186 372 142 q 393 290 385 231 q 411 417 401 350 l 458 743 l 436 744 q 417 747 421 746 q 410 751 413 747 q 408 774 399 764 l 413 779 l 475 779 q 540 776 529 779 q 550 763 550 774 q 544 748 550 751 q 518 744 538 744 q 503 744 506 744 q 503 740 501 743 q 508 713 503 739 q 520 644 513 688 q 538 542 528 600 q 560 418 549 483 q 581 295 571 353 q 599 194 592 238 q 612 126 607 151 q 617 100 617 100 q 624 147 617 100 q 640 264 631 193 q 661 417 650 335 q 681 572 672 500 q 697 691 690 643 q 703 739 703 739 q 694 740 703 740 q 672 740 685 740 q 648 742 653 740 q 640 746 643 743 q 640 769 629 758 l 646 774 l 794 774 l 800 769 q 800 746 813 758 q 792 741 797 742 q 768 740 788 740 q 739 738 740 740 q 735 707 739 738 q 724 625 731 676 q 708 505 717 574 q 688 358 699 436 q 667 203 676 274 q 650 83 657 133 q 639 5 643 33 q 635 -25 635 -24 q 619 -33 629 -33 q 606 -22 610 -33 q 595 26 604 -19 q 574 140 586 71 q 547 290 561 208 q 519 447 532 372 q 496 578 506 521 q 482 654 486 635 q 478 627 482 654 q 467 554 474 600 q 451 447 460 508 q 432 314 442 385 q 413 183 422 244 q 397 74 404 121 q 386 -1 390 26 q 382 -29 382 -28 q 369 -37 379 -36 q 317 -42 360 -39 q 276 -44 289 -44 q 257 -44 264 -44 q 249 -43 251 -44 z "},"X":{"ha":608,"x_min":26,"x_max":581,"o":"m 119 -46 q 58 -42 60 -43 q 51 -21 46 -36 q 60 -12 54 -14 q 81 -11 65 -11 l 100 -11 l 176 149 q 231 263 208 215 q 254 313 254 311 q 247 331 254 313 q 228 379 240 349 q 201 450 217 410 q 168 535 186 490 l 83 756 l 60 756 q 33 761 38 757 q 28 776 26 767 q 38 788 29 785 q 58 790 42 789 q 111 792 75 790 q 170 792 139 792 q 219 794 201 793 l 239 794 q 269 792 263 794 q 279 783 276 790 q 276 767 282 774 q 257 760 269 760 q 247 760 253 760 q 239 758 242 760 l 231 757 l 285 624 q 323 530 307 569 q 340 490 339 490 q 359 528 340 490 q 401 614 378 567 q 443 701 424 661 q 464 746 463 742 q 442 749 467 749 q 422 749 426 749 q 415 753 418 750 q 408 768 407 760 q 421 781 410 776 q 457 782 425 782 l 496 782 q 535 781 521 782 q 557 780 550 781 q 566 778 564 779 q 569 775 568 778 q 569 753 579 765 q 561 748 565 749 q 533 746 557 747 l 503 744 l 357 444 l 533 10 l 553 10 q 575 6 569 8 q 581 -7 581 3 q 561 -25 581 -22 q 523 -28 551 -26 q 462 -30 494 -29 q 399 -31 429 -31 q 356 -32 368 -32 l 349 -32 q 338 -21 340 -29 q 342 -6 336 -12 q 360 1 347 0 q 370 2 367 1 q 375 3 374 3 q 368 23 375 3 q 349 72 361 43 q 324 135 338 101 q 300 199 311 169 q 281 247 289 228 q 272 267 272 267 q 207 131 236 192 q 161 36 182 79 q 139 -10 140 -7 q 146 -11 142 -10 l 163 -11 q 183 -13 178 -12 q 190 -17 188 -14 q 194 -34 197 -24 q 182 -46 192 -44 l 119 -46 z "},"Y":{"ha":564,"x_min":24,"x_max":542,"o":"m 160 -32 q 140 -28 144 -31 q 132 -18 135 -25 q 135 -8 132 -14 q 140 0 138 -1 q 160 3 146 3 l 174 4 l 193 101 q 206 171 200 142 q 213 203 213 200 q 207 226 213 203 q 192 288 201 249 q 171 380 183 328 q 144 490 158 432 l 78 772 l 58 772 q 41 773 44 772 q 33 779 38 774 q 32 800 24 789 q 40 805 36 804 q 61 807 44 806 q 87 808 72 808 q 113 808 101 808 l 128 808 q 139 808 136 808 q 144 806 142 807 q 149 785 156 796 q 124 775 143 775 l 113 775 l 114 769 q 119 749 114 768 q 131 697 124 729 q 149 622 139 664 q 171 531 160 579 q 201 403 190 451 q 219 328 213 354 q 228 296 225 303 q 231 292 231 289 q 238 328 231 293 q 254 417 244 364 q 276 532 264 469 q 299 649 288 594 q 317 741 310 703 q 325 783 324 779 l 326 789 l 311 789 q 283 807 283 789 q 293 821 283 817 q 330 823 296 822 q 413 824 364 824 l 526 824 l 531 818 q 531 797 542 808 q 524 792 528 793 q 507 790 521 792 l 489 790 l 483 763 q 477 732 482 757 q 465 669 472 707 q 449 582 458 631 q 429 481 439 533 q 408 373 419 428 q 388 268 397 318 q 371 178 379 218 q 358 114 363 138 q 351 72 354 92 q 344 36 347 51 q 338 3 340 18 q 354 1 338 1 q 374 -4 371 0 q 374 -29 386 -17 l 368 -33 l 272 -33 q 199 -33 232 -33 q 160 -32 167 -32 z "},"Z":{"ha":382,"x_min":28,"x_max":354,"o":"m 317 -114 q 313 -106 314 -108 q 313 -89 313 -103 l 314 -72 l 207 -72 q 77 -70 114 -71 q 36 -67 40 -69 q 29 -57 31 -61 q 30 -42 28 -56 q 41 15 32 -28 q 67 141 50 58 q 115 365 85 224 q 149 527 133 451 q 178 660 165 603 q 197 751 190 718 q 204 785 204 785 q 201 788 206 788 q 178 790 196 789 q 149 791 167 790 q 118 792 132 792 l 85 792 l 83 771 q 78 746 82 750 q 67 742 74 742 q 54 747 58 742 q 49 758 50 751 q 49 806 49 765 q 51 865 49 857 q 67 876 56 876 q 79 871 75 876 q 83 847 83 867 l 83 828 l 104 826 q 149 826 113 826 q 226 824 185 825 q 301 822 268 822 q 336 821 333 821 q 354 803 354 818 q 349 774 354 801 q 333 699 343 746 q 311 590 324 651 q 283 458 299 528 q 255 322 269 389 q 228 198 240 254 q 208 101 217 142 q 196 44 200 61 q 190 15 193 29 q 185 -11 188 0 q 181 -33 182 -24 q 201 -35 182 -35 q 249 -36 221 -35 l 315 -37 l 317 -31 q 318 -24 318 -28 q 318 -17 318 -19 q 331 6 318 0 q 334 6 333 6 q 336 7 335 7 q 349 1 343 7 q 352 -5 351 -1 q 353 -15 353 -8 q 352 -39 353 -24 q 350 -70 351 -54 q 347 -98 349 -86 q 344 -111 346 -110 q 329 -121 338 -121 q 317 -114 324 -121 z "},"a":{"ha":581,"x_min":26,"x_max":558,"o":"m 460 13 q 424 14 446 14 q 386 14 403 14 q 357 15 369 14 q 342 15 344 15 q 336 33 333 21 q 358 43 340 42 l 371 44 l 369 71 l 369 97 q 364 94 367 96 q 350 85 356 89 q 290 53 322 68 q 226 38 258 38 q 157 55 189 38 q 101 101 125 72 q 60 163 76 129 q 36 231 43 197 q 28 322 26 272 q 43 414 31 371 q 71 480 54 447 q 112 538 88 513 q 167 579 136 563 q 236 597 199 596 q 291 590 268 597 q 342 568 314 583 q 357 561 353 563 q 363 557 360 558 q 361 584 364 558 q 356 629 358 610 q 336 701 350 661 q 290 754 322 740 q 278 759 283 758 q 256 760 272 760 q 202 750 235 760 q 156 726 169 740 q 153 722 153 724 q 164 708 154 719 q 172 698 168 703 q 178 690 176 693 q 176 676 181 682 q 164 669 171 669 q 160 670 161 669 q 158 671 160 671 q 146 683 157 671 q 122 708 135 694 q 99 735 110 722 q 88 751 89 749 q 90 765 85 758 q 103 771 94 771 q 110 769 107 771 q 125 753 113 767 l 131 744 l 142 753 q 206 784 171 774 q 278 794 242 794 q 365 772 328 794 q 426 712 401 749 q 467 631 451 675 q 490 544 482 586 q 503 477 499 507 q 510 418 508 447 q 513 358 513 389 q 511 286 513 326 q 508 213 510 253 q 503 138 506 174 q 499 78 501 103 q 494 49 496 53 q 499 47 494 47 q 518 46 503 46 q 541 44 538 44 q 547 39 544 43 q 547 17 558 28 q 540 13 544 14 q 517 11 536 13 q 489 12 506 11 q 460 13 472 13 m 314 103 q 332 114 321 107 q 350 128 343 121 l 368 142 l 368 326 l 367 513 l 358 521 q 316 547 343 533 q 274 560 289 560 q 222 531 247 560 q 185 461 196 501 q 171 369 174 422 q 175 283 168 317 q 199 199 182 239 q 246 125 215 158 q 271 104 256 114 q 294 93 286 94 l 314 103 z "},"b":{"ha":517,"x_min":25,"x_max":489,"o":"m 78 -1 q 53 24 42 1 q 72 33 57 33 l 79 33 l 90 32 l 89 65 q 88 109 89 72 q 86 203 88 146 q 83 335 85 261 q 81 489 82 408 q 78 641 79 569 q 75 767 76 713 q 73 853 74 821 q 72 888 72 886 l 71 896 l 57 896 q 29 907 35 896 q 35 926 25 917 q 70 931 40 929 q 137 934 100 933 q 206 935 174 935 q 251 935 239 935 q 265 924 261 933 q 261 907 268 914 q 238 901 257 903 l 221 901 l 219 872 q 219 837 219 861 q 221 789 219 813 l 222 735 l 247 731 q 385 669 328 719 q 471 538 443 618 q 488 429 488 486 q 474 316 489 372 q 429 207 458 260 q 357 111 400 154 q 252 34 308 63 q 126 -1 196 6 q 111 -3 117 -3 q 101 -4 106 -4 q 91 -3 96 -4 q 78 -1 86 -3 m 251 74 q 305 114 285 93 q 343 171 325 135 q 378 275 367 218 q 392 390 390 332 q 383 504 393 449 q 351 606 372 560 q 307 669 332 646 q 235 699 282 692 l 224 699 l 224 692 q 224 642 224 688 q 226 533 225 597 q 230 395 228 469 q 233 256 232 321 q 236 145 235 190 q 238 94 238 100 q 239 75 238 81 q 239 67 239 71 q 251 74 242 67 z "},"c":{"ha":440,"x_min":28,"x_max":413,"o":"m 224 7 q 121 75 160 22 q 61 195 82 128 q 34 335 40 263 q 28 464 28 408 q 31 557 28 507 q 45 656 35 607 q 75 749 56 704 q 125 824 94 793 q 173 857 149 846 q 229 868 197 868 q 274 858 250 868 q 322 814 300 846 q 339 784 329 803 q 351 756 349 765 l 354 749 l 365 753 q 386 757 378 757 q 400 749 396 757 q 403 738 403 744 q 388 725 400 725 q 376 722 386 725 q 352 716 365 719 q 325 709 339 713 q 303 703 311 706 q 291 699 296 700 q 283 697 286 697 q 272 704 276 697 q 275 722 264 714 q 285 727 278 724 q 301 733 292 731 q 317 739 310 736 q 324 743 324 742 q 314 766 325 746 q 296 794 303 786 q 281 808 286 806 q 263 811 275 811 q 224 771 246 806 q 189 692 203 736 q 172 615 179 660 q 161 525 164 569 q 159 490 160 511 q 159 449 158 469 q 161 408 160 428 q 164 378 163 389 q 175 316 167 358 q 194 229 183 274 q 219 146 206 185 q 247 93 233 107 q 278 67 263 78 q 299 56 293 56 q 319 72 306 56 q 338 94 333 88 q 321 113 338 99 q 306 127 308 124 q 306 135 304 131 q 321 149 308 149 q 332 143 326 149 q 342 134 335 140 q 357 121 349 128 q 408 78 401 86 q 410 63 413 71 q 401 53 408 56 q 399 52 400 53 q 396 51 399 51 q 378 63 392 51 q 365 72 368 72 q 356 63 363 72 q 286 10 328 26 q 269 6 279 7 q 249 4 260 4 q 224 7 238 4 z "},"d":{"ha":524,"x_min":24,"x_max":499,"o":"m 242 708 q 280 727 256 715 q 308 739 304 739 q 310 789 310 739 l 310 838 l 297 839 q 275 857 275 840 q 281 869 275 864 l 286 874 l 383 875 l 482 875 l 488 871 q 488 847 499 858 q 468 840 483 842 l 454 840 q 453 806 454 840 q 453 713 453 771 q 452 583 453 656 q 451 435 451 511 q 451 287 451 360 q 451 157 451 214 q 451 65 451 100 q 451 31 451 31 q 456 31 453 31 q 459 32 457 32 q 464 33 461 32 q 481 36 478 36 q 492 32 486 36 q 496 21 496 28 q 479 1 496 8 q 441 -10 463 -7 q 398 -15 419 -14 q 368 -17 376 -17 q 257 2 310 -17 q 160 56 204 21 q 85 138 117 90 q 40 240 54 185 q 30 374 24 307 q 63 504 36 442 q 135 619 90 567 q 242 708 181 672 m 176 136 q 212 80 190 107 q 251 43 233 53 q 280 31 263 36 q 307 25 297 25 q 309 40 308 25 q 310 92 310 54 q 310 197 310 131 q 310 364 310 263 q 310 495 310 433 q 310 603 310 557 q 309 676 310 649 q 308 703 308 703 q 303 700 306 701 q 297 697 300 699 q 289 693 293 696 q 245 661 260 679 q 207 599 231 643 q 162 480 178 542 q 142 357 146 418 q 146 240 138 296 q 176 136 154 183 z "},"e":{"ha":514,"x_min":28,"x_max":490,"o":"m 243 -8 q 153 43 190 4 q 90 133 115 82 q 51 239 65 183 q 32 340 38 294 q 29 375 31 354 q 28 418 28 396 q 28 461 28 440 q 31 494 29 482 q 86 704 43 615 q 169 817 121 776 q 271 857 218 857 q 343 828 311 857 q 399 758 375 800 q 437 672 422 717 q 458 593 451 626 q 463 562 464 569 q 458 550 463 554 q 416 526 456 549 q 322 472 376 503 l 190 396 l 189 386 q 197 301 189 351 q 222 201 206 250 q 265 113 239 153 q 325 61 290 74 q 346 57 336 57 q 357 60 351 57 q 390 89 369 64 l 401 104 l 394 108 q 378 126 378 115 q 392 143 378 140 q 404 141 394 144 q 438 126 414 138 q 467 113 454 118 q 481 104 479 107 q 485 85 490 97 q 471 75 478 75 q 449 83 464 75 q 435 88 436 88 q 432 86 432 88 q 363 17 400 44 q 271 -11 326 -11 q 243 -8 260 -11 m 306 503 q 387 549 353 529 q 424 569 421 568 q 427 574 426 572 q 425 586 428 575 q 413 633 422 600 q 388 701 403 667 q 356 763 374 736 q 322 789 339 789 q 289 769 308 789 q 219 642 246 725 q 188 453 193 558 q 190 438 188 436 q 225 456 192 438 q 306 503 258 475 z "},"f":{"ha":425,"x_min":22,"x_max":404,"o":"m 51 -8 q 48 13 40 3 q 74 22 56 22 q 83 25 83 22 q 81 51 83 26 q 77 107 79 76 q 73 166 75 138 q 71 204 71 194 q 58 206 71 206 q 54 205 56 206 q 50 204 53 204 q 31 215 35 204 q 56 240 22 236 l 69 240 l 69 313 q 70 385 69 336 q 76 492 71 433 q 91 614 81 551 q 119 728 101 676 q 165 812 138 779 q 232 844 192 844 q 361 750 293 844 q 369 753 361 750 q 379 757 376 757 q 382 756 381 757 q 385 756 383 756 q 394 731 404 749 q 383 722 393 729 q 362 706 374 714 q 340 692 350 699 q 326 686 329 686 q 317 690 322 686 q 310 696 311 693 q 325 724 303 713 q 329 728 329 726 q 331 729 331 728 q 326 737 331 731 q 317 750 322 743 q 306 763 311 757 q 297 771 300 769 q 283 775 292 775 q 269 769 275 775 q 253 732 260 763 q 240 665 246 701 q 232 597 235 629 q 229 551 229 564 q 229 489 229 538 q 230 387 229 440 q 232 292 231 333 q 233 249 233 250 q 242 249 238 249 q 249 249 244 249 q 260 250 254 250 l 286 251 l 285 263 q 301 288 282 288 q 316 279 313 288 q 322 238 319 271 q 324 201 325 210 q 318 189 324 193 q 307 186 313 186 q 289 207 293 186 l 288 217 l 261 215 q 242 214 250 214 q 233 213 235 214 q 233 183 233 213 q 234 119 233 154 q 235 56 235 85 q 236 25 236 26 q 251 24 236 24 q 272 19 267 24 q 272 -6 285 7 q 263 -9 269 -8 q 228 -11 257 -10 q 179 -12 210 -11 q 121 -12 149 -12 q 64 -12 74 -12 q 51 -8 54 -11 z "},"g":{"ha":603,"x_min":22,"x_max":575,"o":"m 265 -125 q 171 -88 207 -119 q 103 -12 135 -57 l 88 8 l 81 0 q 58 -21 67 -21 q 49 -15 54 -21 q 47 10 39 -6 q 60 24 50 14 q 81 45 69 35 q 102 65 92 56 q 117 76 113 75 q 126 81 124 81 q 136 76 132 81 q 142 67 142 72 q 128 49 142 61 q 118 39 122 43 q 114 32 114 35 q 122 18 114 29 q 140 -6 129 7 q 161 -32 150 -19 q 178 -49 172 -44 q 253 -79 208 -74 q 260 -80 257 -79 q 267 -81 264 -81 q 292 -73 282 -81 q 317 -46 301 -65 q 349 17 336 -19 q 369 95 361 54 q 379 176 376 136 q 382 250 382 217 l 382 267 l 357 240 q 301 197 329 215 q 235 178 274 178 q 160 194 193 178 q 101 239 126 211 q 60 302 76 267 q 38 375 44 338 q 31 518 22 446 q 72 657 40 590 q 137 745 96 706 q 236 785 178 785 q 371 721 299 785 q 390 706 389 706 q 390 717 390 711 q 390 729 390 722 q 389 743 390 736 l 388 781 l 382 781 q 367 778 378 781 l 358 778 q 343 786 346 778 q 350 804 340 799 q 482 813 361 813 q 544 813 531 813 q 563 810 558 813 q 574 794 574 804 q 565 781 575 785 q 553 779 563 779 l 547 779 l 535 779 l 536 767 q 539 739 538 753 q 541 708 540 725 q 542 668 542 692 q 543 611 543 644 q 544 430 546 511 q 536 272 543 349 q 520 143 531 213 q 484 14 510 74 q 413 -86 458 -46 q 289 -126 367 -126 q 265 -125 274 -126 m 279 222 q 305 240 288 226 q 340 272 322 254 q 371 305 357 289 q 385 329 385 321 q 385 363 385 332 q 388 433 386 393 q 393 597 392 544 q 392 653 394 649 q 372 674 389 657 q 343 703 354 692 q 267 743 294 742 q 253 742 257 743 q 242 739 249 742 q 207 703 221 726 q 183 654 193 681 q 168 601 174 628 q 160 553 163 574 q 158 526 158 543 q 158 490 158 508 q 158 456 158 472 q 160 429 158 439 q 169 381 163 408 q 184 326 175 354 q 206 274 193 299 q 235 233 218 250 q 261 217 251 217 q 279 222 269 217 z "},"h":{"ha":522,"x_min":28,"x_max":501,"o":"m 28 840 q 42 856 28 853 q 71 857 43 857 q 136 858 99 857 l 226 858 l 232 853 q 232 829 244 842 q 213 824 226 825 l 199 822 l 199 614 q 199 497 199 539 q 199 435 199 456 q 199 411 199 415 q 201 408 200 407 q 208 417 204 411 q 218 431 213 424 q 243 463 229 446 q 274 494 257 479 q 311 519 292 510 q 351 529 331 529 q 416 496 393 529 q 451 416 439 463 q 465 322 463 369 q 468 244 468 274 q 467 156 468 192 q 458 71 465 119 l 454 43 l 469 43 q 489 39 486 43 q 489 15 501 26 q 474 9 486 11 q 449 6 463 7 q 422 5 435 6 q 404 4 410 4 q 390 6 393 4 q 383 10 386 7 q 379 26 376 17 q 393 38 382 35 q 403 44 401 40 q 408 82 406 49 q 415 244 415 165 q 404 381 414 322 q 383 456 396 425 q 356 493 369 486 q 352 494 353 493 q 349 494 351 494 q 344 494 346 494 q 336 492 342 493 q 298 467 317 483 q 263 432 279 451 q 233 392 247 413 q 210 354 219 371 l 199 335 l 199 7 l 215 7 q 231 6 226 7 q 238 1 235 4 q 242 -15 244 -6 q 231 -26 240 -24 q 203 -28 229 -26 q 147 -32 178 -31 q 88 -35 115 -33 q 56 -36 61 -36 q 43 -33 49 -36 q 35 -18 35 -31 q 56 -1 35 -4 l 67 -1 l 67 167 q 67 251 67 201 q 67 358 67 301 q 67 472 67 414 q 68 579 68 529 l 69 822 l 56 822 q 28 840 28 822 z "},"i":{"ha":292,"x_min":22,"x_max":265,"o":"m 238 39 q 261 26 257 38 q 261 16 264 22 q 254 8 258 10 q 227 6 251 7 q 171 6 203 6 q 90 4 118 6 q 56 0 63 3 q 49 1 51 0 q 39 15 39 4 q 60 31 39 28 q 71 33 68 33 q 73 43 72 33 q 74 85 74 53 q 75 179 75 117 q 75 347 75 242 l 74 661 l 56 661 q 38 662 42 661 q 32 665 35 663 q 32 685 22 675 q 64 691 35 689 q 128 694 93 693 q 196 696 164 696 q 236 696 228 696 l 247 696 q 262 684 258 693 q 258 668 265 675 q 253 665 256 665 q 240 664 250 664 q 227 663 229 664 q 224 660 225 663 q 223 585 224 622 q 221 510 222 547 q 219 429 219 475 q 219 335 219 383 q 220 238 219 286 q 222 150 221 190 q 224 80 224 110 q 225 47 225 50 l 225 40 l 238 39 m 81 776 q 75 807 76 788 q 80 840 75 822 q 93 872 85 857 q 114 897 101 886 q 142 907 126 907 q 163 904 150 907 q 182 899 175 901 q 211 867 199 892 q 217 813 222 843 q 190 763 211 783 q 168 746 179 751 q 136 740 156 740 q 103 751 119 740 q 81 776 88 761 z "},"j":{"ha":433,"x_min":26,"x_max":406,"o":"m 281 825 q 240 849 256 831 q 224 893 225 867 q 238 944 222 921 q 300 979 261 979 q 357 947 336 979 q 369 910 368 929 q 362 873 369 890 q 340 842 354 856 q 304 825 325 829 q 299 824 301 825 q 294 824 297 824 q 290 824 292 824 q 288 824 289 824 q 284 824 285 824 q 281 825 283 825 m 403 772 q 404 761 406 767 q 396 752 401 754 q 376 749 390 750 q 363 747 365 747 q 361 743 361 746 q 362 721 361 742 q 363 664 363 700 q 365 581 364 628 q 367 481 365 533 q 369 378 368 428 q 372 291 371 329 q 372 228 372 253 q 372 197 372 203 q 357 117 369 154 q 322 51 344 79 q 265 6 299 22 q 185 -11 231 -11 q 171 -10 174 -11 q 148 -6 163 -10 q 126 1 133 -1 q 70 41 93 15 q 37 98 47 67 q 30 165 26 129 q 51 233 33 200 q 78 267 58 246 q 111 297 97 288 q 115 301 114 300 q 119 304 117 301 q 122 307 121 306 q 115 322 122 311 q 117 350 106 343 q 128 354 121 354 q 138 350 136 354 q 148 335 140 349 q 163 307 156 322 q 178 278 171 292 q 185 263 185 265 q 168 244 188 244 q 146 264 157 244 q 139 274 142 274 q 126 265 135 274 q 108 247 117 257 q 91 225 99 236 q 81 210 83 214 q 65 142 64 175 q 126 40 69 71 q 142 35 136 35 q 147 35 144 35 q 153 36 149 36 q 192 50 176 38 q 219 80 208 63 q 237 119 231 97 q 247 160 243 140 q 251 192 250 172 q 251 249 251 211 q 249 349 251 286 q 243 508 247 411 q 240 595 242 554 q 236 667 238 636 q 234 717 235 699 q 233 738 233 736 l 233 744 l 217 744 q 197 750 200 746 q 193 766 190 757 q 206 778 196 775 q 235 779 208 778 q 299 782 263 781 q 339 783 322 783 q 367 783 356 783 q 395 781 390 783 q 403 772 400 779 z "},"k":{"ha":475,"x_min":21,"x_max":447,"o":"m 33 860 q 51 867 39 867 q 82 869 58 867 q 132 872 106 871 q 180 875 158 874 q 206 876 201 876 q 226 860 226 876 q 203 842 226 843 q 190 839 190 842 l 190 588 q 190 459 190 508 q 190 383 190 410 q 191 349 190 357 q 193 342 192 340 q 212 367 194 343 q 250 419 229 390 q 289 474 271 449 q 310 503 307 499 q 311 508 313 506 q 303 518 310 511 q 293 536 293 529 q 311 551 293 551 q 325 543 315 551 q 346 523 335 535 q 367 501 357 511 q 378 486 376 490 q 378 469 382 476 q 363 463 374 463 q 347 472 357 463 l 336 481 l 315 450 q 286 410 306 438 q 249 358 267 383 q 233 334 240 346 q 218 314 225 322 q 204 296 210 304 q 214 290 204 293 q 300 129 258 272 q 331 74 310 94 q 389 54 351 54 q 400 58 399 56 q 399 81 401 60 q 398 93 397 90 q 401 99 399 96 q 414 104 407 104 q 429 92 425 104 q 433 76 431 89 q 440 47 436 63 q 447 8 447 17 q 440 -6 447 -1 q 431 -10 436 -10 q 417 -3 422 -10 q 413 11 413 4 l 410 21 l 392 19 q 269 111 297 19 q 244 191 251 169 q 228 229 236 213 q 196 264 210 260 l 190 265 l 190 54 l 208 53 q 224 52 219 53 q 232 49 229 51 q 235 32 239 42 q 222 21 232 22 q 194 19 219 19 q 136 18 168 19 l 82 18 q 48 19 54 18 q 39 28 42 21 q 42 46 36 38 q 61 51 46 51 l 76 53 l 75 343 q 75 464 75 403 q 75 578 75 525 q 74 672 75 631 q 74 735 74 714 l 72 833 l 60 833 q 41 834 44 833 q 33 839 38 835 q 33 860 21 850 z "},"l":{"ha":401,"x_min":19,"x_max":374,"o":"m 347 -10 q 339 15 339 -1 q 338 21 339 19 q 319 22 338 22 q 281 22 306 22 q 211 19 256 21 q 156 17 178 18 q 121 17 135 17 q 94 19 99 17 q 88 26 90 21 q 87 47 88 28 q 85 106 86 65 q 84 213 85 147 q 82 375 83 279 q 81 515 82 446 q 80 640 81 583 q 78 735 79 696 q 78 789 78 775 l 78 858 l 58 858 q 42 859 47 858 q 35 863 38 860 q 35 888 19 875 l 39 892 l 135 894 l 235 894 q 250 878 250 892 q 240 864 250 867 q 221 861 229 861 l 203 861 l 204 658 q 204 563 204 617 q 204 455 204 510 q 205 348 204 400 q 206 254 206 296 l 207 54 l 239 54 q 272 55 253 54 q 304 57 290 56 l 338 57 l 339 69 q 356 92 339 92 q 372 76 368 92 q 373 62 372 74 q 374 35 374 50 l 374 -3 l 368 -7 q 356 -12 363 -12 q 347 -10 353 -12 z "},"m":{"ha":564,"x_min":28,"x_max":542,"o":"m 39 -8 q 28 7 28 -3 q 33 17 28 11 q 40 22 36 21 q 53 24 43 24 l 68 25 l 68 90 q 68 140 68 103 q 67 231 68 178 q 67 349 67 285 q 67 479 67 413 q 65 658 65 593 q 65 757 65 724 q 66 800 65 790 q 68 811 67 810 q 79 818 71 817 q 110 819 88 819 q 134 820 121 819 q 157 822 147 821 q 166 823 163 822 q 172 824 169 824 q 183 821 181 824 q 211 775 194 817 q 245 683 228 733 q 276 586 263 632 q 293 529 290 540 q 306 481 297 513 q 324 422 315 450 q 338 371 331 394 q 346 342 344 347 q 349 331 347 335 q 350 329 350 328 l 396 574 q 414 668 406 624 q 429 746 422 713 q 440 799 436 779 q 444 819 444 819 q 460 828 449 828 q 479 815 474 828 q 481 809 481 814 q 482 790 482 804 q 482 747 482 775 q 482 671 482 719 q 482 597 482 642 q 483 501 482 553 q 483 393 483 449 q 483 286 483 338 l 485 40 l 504 40 l 515 40 q 525 40 522 40 q 531 36 528 39 q 531 13 542 24 q 521 8 526 8 q 488 6 515 7 q 456 4 472 4 q 431 4 439 4 q 413 5 415 4 q 406 10 410 6 q 404 32 394 19 q 410 36 407 35 q 429 38 414 38 l 449 39 l 449 171 q 449 236 449 199 q 449 315 449 274 q 448 399 449 357 q 447 478 447 442 l 447 653 l 439 614 q 433 581 436 600 q 423 530 429 561 q 408 453 417 499 q 388 343 400 408 q 375 275 381 303 q 367 244 369 247 q 350 235 363 235 q 336 243 340 235 q 331 260 335 246 q 322 293 328 274 q 294 398 313 333 q 256 528 275 463 q 222 647 238 593 q 199 718 206 700 l 194 729 l 194 710 q 194 681 194 706 q 195 615 194 656 q 197 524 196 575 q 197 417 197 474 q 198 307 197 361 q 199 208 199 253 q 200 131 200 163 q 200 88 200 99 l 200 31 l 214 31 q 240 21 236 31 q 240 4 243 13 q 235 -1 239 1 q 222 -3 232 -3 q 193 -5 213 -4 q 139 -7 174 -6 q 78 -10 99 -10 q 51 -10 58 -10 q 43 -10 44 -10 q 39 -8 42 -10 z "},"n":{"ha":658,"x_min":22,"x_max":631,"o":"m 622 44 q 630 31 629 39 q 622 18 631 24 q 601 15 619 17 q 562 12 583 13 q 520 10 540 11 q 493 10 500 10 q 479 25 479 13 q 499 40 479 39 q 507 42 501 42 l 511 43 q 516 93 514 47 q 519 192 518 139 q 514 390 521 296 q 492 558 507 485 q 458 680 478 632 q 413 739 438 728 q 400 742 404 742 q 345 718 371 742 q 298 662 319 694 q 261 594 276 629 q 239 539 246 560 l 231 514 l 232 479 q 245 267 240 372 q 250 54 250 161 l 250 35 l 264 35 q 283 32 275 35 q 292 19 290 28 q 286 3 293 10 q 276 0 283 0 q 242 0 269 0 q 194 -1 221 0 q 144 -4 168 -3 q 100 -7 119 -6 q 72 -10 81 -8 q 64 -10 67 -12 q 54 4 54 -8 q 76 21 54 17 l 90 24 l 90 49 q 88 92 89 69 q 87 147 88 114 q 85 226 86 179 q 85 344 85 274 q 83 506 83 438 q 79 601 82 575 q 77 656 78 625 q 76 707 76 688 q 76 748 76 728 q 75 776 76 768 l 74 796 l 56 794 q 40 795 43 794 q 33 800 36 796 q 32 819 22 810 q 51 825 38 825 q 153 837 100 835 q 256 839 206 839 q 268 835 264 839 q 268 811 281 824 q 248 805 263 806 q 226 804 233 804 l 221 803 l 222 726 q 224 666 224 694 q 225 628 225 638 l 226 606 l 243 636 q 272 686 256 661 q 308 731 288 711 q 353 764 328 751 q 408 776 378 776 q 486 732 457 772 q 532 639 515 692 q 556 532 549 586 q 565 443 563 478 q 567 376 567 428 q 568 229 568 325 l 568 46 l 593 47 q 622 44 618 47 z "},"o":{"ha":636,"x_min":29,"x_max":610,"o":"m 264 -8 q 110 92 172 8 q 31 306 47 176 q 29 333 29 315 q 29 369 29 350 q 29 406 29 388 q 31 433 29 424 q 56 544 38 488 q 105 652 74 601 q 179 742 136 703 q 279 796 222 781 q 300 801 292 800 q 336 801 308 801 q 373 801 364 801 q 394 796 382 800 q 485 744 444 781 q 553 657 525 708 q 595 541 581 606 q 607 404 610 476 q 585 269 606 340 q 528 136 565 197 q 435 33 490 75 q 306 -11 379 -8 q 281 -11 292 -11 q 263 -8 271 -11 l 264 -8 m 365 36 q 447 90 411 54 q 507 169 482 125 q 548 261 532 213 q 569 356 564 310 q 572 424 572 382 q 569 492 572 467 q 517 650 556 583 q 419 747 478 717 q 395 758 404 756 q 371 760 386 760 q 257 647 307 746 q 207 492 224 581 q 194 315 190 403 q 201 246 197 282 q 215 175 206 210 q 241 108 225 140 q 281 53 257 76 q 336 31 303 31 q 365 36 349 31 z "},"p":{"ha":542,"x_min":28,"x_max":515,"o":"m 142 -8 q 82 -8 103 -8 q 51 -6 61 -7 q 40 -2 42 -4 q 36 4 38 0 q 40 22 32 15 q 63 28 47 28 l 75 28 l 75 168 l 75 310 q 75 334 75 310 q 76 399 75 358 q 77 495 76 440 q 78 611 78 550 l 79 910 l 74 910 q 56 907 67 910 q 51 906 53 907 q 46 906 49 906 q 28 922 28 906 q 36 938 28 933 q 76 944 44 942 q 139 947 107 947 q 266 928 206 947 q 376 874 326 910 q 460 785 425 838 q 508 667 494 733 q 514 613 513 647 q 513 554 515 578 q 481 440 506 496 q 420 334 457 383 q 337 244 383 285 q 238 178 290 204 l 221 169 l 221 26 l 239 26 q 264 21 258 25 q 271 8 271 17 q 264 -6 271 -1 q 255 -9 261 -8 q 225 -10 249 -10 q 192 -9 211 -10 q 142 -8 172 -8 m 261 233 q 283 247 271 239 q 301 261 294 256 q 425 511 400 340 q 427 540 426 521 q 428 581 428 560 q 427 621 428 601 q 425 649 426 640 q 376 797 411 738 q 286 883 340 857 q 270 890 281 886 q 249 897 260 893 q 231 901 239 900 q 224 903 224 903 q 224 800 224 856 q 222 690 222 753 q 222 556 222 628 l 221 208 l 231 214 q 243 222 233 217 q 261 233 253 226 z "},"q":{"ha":667,"x_min":28,"x_max":639,"o":"m 417 -71 q 351 -36 378 -62 q 308 26 325 -10 q 284 101 292 61 q 275 175 276 140 l 274 219 l 268 221 q 114 301 176 240 q 32 456 51 361 q 28 515 28 476 q 33 578 28 554 q 78 693 46 640 q 158 785 111 746 q 264 846 206 824 q 385 868 322 868 q 433 865 410 868 q 465 857 456 863 q 472 836 478 850 q 456 826 468 826 l 450 826 l 439 828 l 439 818 q 438 791 439 817 q 435 724 438 765 q 432 626 433 682 q 428 510 431 571 q 422 321 424 393 q 419 206 419 249 q 418 141 418 163 q 419 106 418 119 q 472 -29 435 -22 l 476 -29 q 492 -22 483 -29 q 510 -6 501 -15 q 524 12 518 3 q 533 26 531 21 q 549 61 540 38 q 558 96 557 85 l 560 106 l 547 107 q 524 122 524 107 q 533 138 524 135 q 582 140 542 140 l 628 140 l 633 135 q 639 122 639 129 q 613 106 636 107 l 596 106 l 593 90 q 576 33 589 63 q 544 -19 564 4 q 499 -58 525 -43 q 442 -74 474 -74 q 417 -71 433 -74 m 276 272 q 276 300 276 276 q 277 361 276 324 q 278 448 278 399 q 281 551 279 497 q 283 653 282 606 q 283 737 283 701 q 283 793 283 772 q 283 814 283 814 q 242 799 282 817 q 203 769 218 786 q 171 719 188 753 q 138 623 150 676 q 124 517 126 569 q 128 415 121 464 q 151 332 135 367 q 187 290 164 306 q 250 261 210 274 q 263 257 258 258 q 271 256 268 256 q 276 272 276 256 z "},"r":{"ha":594,"x_min":28,"x_max":568,"o":"m 76 -1 q 74 18 69 6 q 101 28 79 28 l 113 28 l 111 115 q 110 173 111 133 q 109 265 110 213 q 108 377 108 317 q 107 497 107 438 q 106 615 107 558 q 105 717 106 672 q 103 793 104 763 q 103 832 103 824 l 101 871 l 75 857 q 55 848 64 851 q 44 844 46 844 q 33 849 39 844 q 28 860 28 854 q 53 885 28 872 q 200 925 129 925 q 315 896 267 925 q 395 820 364 867 q 441 716 426 774 q 456 600 456 658 q 424 410 456 506 q 338 238 392 315 q 324 219 328 224 q 331 214 324 215 q 379 110 379 201 q 388 56 379 68 q 404 42 394 46 q 425 39 414 39 q 449 43 439 39 q 474 58 458 47 q 487 71 486 68 q 481 79 488 74 q 458 106 458 94 q 474 121 458 121 q 490 113 478 121 q 517 96 503 106 q 544 76 532 86 q 561 63 557 67 q 565 45 568 54 q 550 36 561 36 q 531 44 540 36 l 519 53 l 507 42 q 469 13 488 22 q 424 4 450 4 q 360 35 372 4 q 344 106 347 65 q 336 167 342 150 q 315 183 331 183 q 306 182 310 183 q 294 178 297 181 q 279 165 290 176 l 264 150 l 265 93 l 265 38 l 274 38 q 288 36 282 38 q 300 26 294 35 q 300 15 303 19 q 296 8 299 11 q 284 4 293 6 q 256 1 275 3 q 201 -1 236 0 q 135 -6 158 -4 q 99 -7 111 -7 q 83 -6 88 -7 q 76 -1 79 -4 m 282 224 q 332 320 311 265 q 365 438 353 375 q 378 565 376 500 q 372 690 381 631 q 340 806 363 757 q 290 868 318 854 q 267 879 279 875 q 254 882 256 883 q 254 856 254 882 q 255 788 254 831 q 256 688 256 746 q 258 565 257 631 q 259 441 258 500 q 260 335 260 382 q 262 260 261 289 q 263 225 263 231 l 263 199 l 267 204 q 282 224 274 211 z "},"s":{"ha":500,"x_min":22,"x_max":479,"o":"m 190 -8 q 107 49 131 0 q 102 61 104 54 q 99 72 100 68 q 96 82 99 82 l 92 81 q 83 79 88 81 l 67 79 q 56 92 57 83 q 63 107 56 100 q 76 113 64 108 q 102 121 88 117 q 129 128 117 125 q 146 131 142 131 q 158 124 154 131 q 160 108 163 117 q 135 93 157 100 q 133 82 132 93 q 147 49 135 64 q 172 35 157 39 q 201 31 188 31 q 263 60 236 31 q 298 134 288 88 q 297 221 308 181 q 235 328 278 288 q 139 406 192 368 q 59 492 83 446 q 29 610 35 539 q 53 752 22 686 q 140 851 83 818 q 225 874 176 874 q 312 853 272 874 q 381 800 351 833 q 426 724 410 767 q 442 635 442 681 q 439 596 442 621 q 433 564 436 571 q 447 560 432 561 q 467 556 463 560 q 467 532 479 543 q 448 526 463 528 q 397 525 433 525 l 364 524 l 358 529 q 358 551 347 540 q 365 556 361 556 q 382 558 368 557 q 397 560 394 558 q 401 564 400 561 q 388 726 421 651 q 350 781 375 750 q 297 818 325 813 q 282 819 292 819 q 235 808 258 819 q 196 778 211 797 q 167 713 176 753 q 164 642 157 674 q 177 593 169 614 q 196 555 185 572 q 222 521 207 538 q 257 485 236 504 q 320 423 301 442 q 354 385 339 404 q 402 315 386 346 q 424 256 418 283 q 425 215 426 243 q 421 172 424 188 q 403 118 415 147 q 381 71 392 89 q 215 -10 319 -10 q 190 -8 199 -10 z "},"t":{"ha":442,"x_min":26,"x_max":417,"o":"m 207 3 q 154 32 178 7 q 119 96 131 57 q 113 124 115 108 q 109 167 111 140 q 106 232 107 193 q 104 331 106 271 q 102 456 103 376 q 101 615 101 535 q 101 761 101 696 q 103 844 101 826 l 104 875 l 38 872 l 33 878 q 29 892 26 885 q 42 901 32 899 q 66 903 46 903 q 92 904 86 904 l 106 906 l 106 932 q 114 972 106 971 l 131 972 q 153 973 138 972 q 185 974 169 974 q 203 974 196 974 q 214 975 210 975 q 237 962 233 975 q 240 932 240 949 l 239 908 l 263 907 q 283 906 272 907 q 299 906 293 906 q 315 900 310 906 q 320 887 322 894 q 311 875 318 879 q 301 872 308 872 q 272 872 293 872 l 239 874 l 238 793 q 236 716 238 761 q 233 642 235 671 q 231 572 232 611 q 228 506 229 532 q 227 456 228 481 q 225 425 226 432 q 223 233 219 315 q 238 115 226 151 q 275 72 250 72 q 290 81 282 72 q 306 99 299 89 q 319 119 314 110 q 325 132 325 129 q 313 142 325 135 q 299 154 299 150 q 299 168 294 161 q 311 175 303 175 q 329 166 314 175 q 362 146 344 157 q 394 125 379 135 q 410 113 408 115 q 411 97 417 106 q 397 88 406 88 q 392 89 393 88 q 383 94 389 90 q 371 101 378 97 q 358 110 365 108 q 354 113 357 111 q 351 110 353 111 l 347 101 q 312 51 335 79 q 265 13 289 22 q 236 1 250 4 q 229 1 232 1 q 224 0 226 0 q 217 1 221 0 q 207 3 214 1 z "},"u":{"ha":578,"x_min":25,"x_max":556,"o":"m 235 -8 q 198 8 217 -4 q 165 36 179 21 q 100 151 126 79 q 61 311 74 222 q 50 501 49 400 q 68 701 51 601 q 75 735 75 729 q 73 738 76 738 q 57 738 69 738 q 40 738 44 738 q 33 742 36 739 q 31 761 25 751 q 40 771 32 767 q 76 774 49 774 q 137 776 104 775 q 200 778 169 778 q 243 778 231 778 q 253 769 250 775 q 254 757 257 764 q 226 744 251 746 q 210 740 211 743 q 204 707 208 738 q 192 483 192 599 q 204 269 192 368 q 212 217 206 256 q 229 139 218 179 q 256 67 240 99 q 292 35 271 35 q 303 36 299 35 q 315 44 307 38 q 383 132 353 72 q 436 271 414 192 q 469 442 458 350 q 475 626 479 533 q 470 692 472 658 q 465 738 468 725 l 464 743 l 439 743 q 417 744 421 743 q 410 747 413 744 q 406 764 403 756 q 419 775 410 772 q 438 776 422 775 q 472 779 453 778 q 508 781 490 781 q 529 782 525 782 q 542 777 536 782 q 547 765 547 772 q 528 749 547 751 q 517 746 517 746 q 515 642 517 697 q 515 528 515 593 q 514 390 515 464 l 513 35 l 525 35 q 549 13 556 35 q 538 3 546 6 q 507 0 531 1 q 476 -2 489 -1 q 456 -3 464 -3 q 435 0 440 -3 q 428 19 425 7 q 437 29 431 26 q 458 32 443 32 l 478 33 l 478 163 l 479 292 l 471 263 q 379 60 435 132 q 258 -11 324 -12 q 235 -8 246 -11 z "},"v":{"ha":579,"x_min":28,"x_max":558,"o":"m 272 -8 q 264 0 267 -6 q 256 31 264 1 q 234 112 247 61 q 203 230 221 163 q 165 372 185 297 q 128 515 146 449 q 97 632 111 582 q 68 740 82 690 q 64 742 67 740 l 53 742 q 33 746 39 742 q 28 759 28 751 q 35 771 29 767 q 65 776 39 774 q 124 778 92 778 q 187 779 157 779 q 228 779 217 779 q 242 764 242 776 q 233 749 242 754 q 214 746 231 746 q 199 743 201 744 q 197 739 197 742 q 203 715 197 739 q 219 651 210 692 q 242 558 229 611 q 269 443 256 504 q 297 330 285 383 q 320 236 310 276 q 337 172 331 196 q 343 149 343 149 q 346 156 343 146 q 353 189 349 167 q 361 225 356 197 q 376 293 367 253 q 395 383 385 333 q 417 483 406 432 q 438 581 428 535 q 455 661 447 626 q 467 716 463 696 q 471 736 471 736 q 454 739 471 739 q 433 743 435 742 q 426 756 426 747 q 433 769 426 765 q 449 773 436 772 q 477 774 461 774 q 508 775 493 775 q 529 775 524 775 q 542 774 540 775 q 547 771 544 774 q 546 746 558 758 q 539 742 543 743 q 524 740 535 742 l 507 740 l 461 525 q 441 430 451 481 q 420 329 431 379 q 400 235 410 279 q 383 160 390 190 q 360 51 369 97 q 347 3 350 6 q 335 -7 344 -4 q 303 -10 326 -10 q 291 -10 296 -10 q 283 -11 286 -11 q 272 -8 278 -11 z "},"w":{"ha":692,"x_min":28,"x_max":664,"o":"m 272 -4 q 267 1 269 -1 q 264 6 265 3 q 256 37 264 7 q 234 117 247 67 q 203 234 221 167 q 165 378 185 301 q 128 520 146 453 q 98 638 111 588 q 76 717 85 688 q 68 746 68 746 l 53 746 q 33 751 40 746 q 28 765 28 757 q 35 776 29 772 q 65 781 39 779 q 124 784 92 783 q 187 785 157 785 q 228 785 217 785 q 242 769 242 782 q 233 754 242 760 q 214 750 232 753 q 199 748 201 749 q 197 744 197 747 q 203 719 197 743 q 219 656 210 696 q 242 563 229 615 q 269 449 256 510 q 297 335 285 389 q 320 242 310 282 q 337 178 331 201 q 343 153 343 154 q 348 172 343 153 q 360 222 353 192 q 374 288 367 253 q 389 355 382 324 q 400 408 396 386 q 404 432 404 431 q 417 447 404 442 q 435 438 429 450 q 444 390 436 435 q 463 283 451 346 q 481 177 474 221 q 489 131 488 133 q 495 174 489 131 q 511 285 501 218 q 532 431 521 353 q 552 578 543 510 q 567 693 561 646 q 574 743 574 740 q 563 747 574 747 q 544 753 550 747 q 543 776 531 764 q 553 780 546 779 q 599 782 561 781 l 651 782 l 657 776 q 663 763 664 769 q 655 751 660 753 q 632 747 650 749 l 611 747 l 610 740 q 606 709 610 739 q 594 629 601 679 q 578 513 588 579 q 558 372 569 447 q 540 231 549 297 q 524 116 531 165 q 513 38 517 67 q 508 7 508 8 q 492 -6 504 -6 q 472 11 476 -6 q 464 62 472 14 q 444 175 456 110 q 426 285 433 240 q 418 329 419 329 q 413 300 418 325 q 401 240 408 275 q 384 165 393 204 q 367 90 375 125 q 353 33 358 56 q 347 8 347 10 q 335 -1 344 1 q 303 -6 326 -4 q 281 -6 288 -6 q 272 -4 275 -6 z "},"x":{"ha":542,"x_min":24,"x_max":515,"o":"m 43 -8 q 40 13 35 3 q 47 19 43 18 q 65 22 51 21 l 81 24 l 151 183 q 202 297 181 250 q 224 346 224 343 q 217 365 224 347 q 199 415 211 383 q 173 488 188 446 q 142 575 158 529 l 60 800 l 51 799 q 30 807 36 797 q 35 826 24 817 q 61 835 38 829 q 115 847 85 840 q 172 858 144 853 q 207 863 199 863 q 224 847 224 860 q 203 828 224 832 q 196 824 196 825 q 203 804 196 824 q 221 756 210 785 q 244 692 232 726 q 269 624 257 657 q 290 565 281 592 q 303 528 299 539 q 312 547 303 528 q 335 594 321 565 q 364 658 349 624 q 392 721 379 692 q 415 770 406 750 q 424 792 424 790 q 421 793 422 792 l 414 793 q 393 801 396 793 q 397 821 388 814 l 401 826 l 451 826 q 494 825 486 825 q 507 822 503 825 q 513 809 513 817 q 508 796 514 801 q 501 792 504 793 q 483 792 497 792 q 465 790 468 790 q 460 785 463 789 q 438 737 458 782 q 389 629 417 692 l 322 478 l 329 457 q 338 433 331 453 q 355 385 344 414 q 378 322 365 357 q 406 247 392 286 l 474 58 l 489 58 q 494 59 492 58 q 499 60 496 60 q 508 54 503 60 q 513 38 515 47 q 501 26 510 29 q 473 20 500 25 q 413 10 446 15 q 354 0 381 4 q 325 -4 328 -4 q 314 3 321 -4 q 310 15 308 8 q 325 31 313 29 q 335 33 332 31 q 327 62 336 35 q 290 165 318 89 q 256 258 271 219 q 242 296 249 278 q 233 276 242 296 q 210 227 224 257 q 180 163 196 197 q 151 98 164 128 q 128 47 138 68 q 119 26 119 26 q 138 25 119 25 q 153 24 150 25 q 160 21 157 24 q 164 1 167 11 q 154 -7 163 -4 q 140 -9 153 -8 q 111 -10 126 -10 q 81 -12 96 -11 q 61 -12 67 -12 q 48 -12 50 -12 q 43 -8 46 -11 z "},"y":{"ha":489,"x_min":28,"x_max":461,"o":"m 247 -28 q 201 -8 224 -24 q 167 31 178 8 q 155 63 163 39 q 147 93 147 88 q 143 94 147 97 q 138 94 142 94 q 132 93 135 93 q 119 96 125 93 q 114 107 114 99 q 125 119 114 114 q 151 128 136 125 q 180 134 165 132 q 201 136 194 136 q 214 128 213 136 q 213 113 217 119 q 203 106 210 106 q 189 103 200 106 l 179 101 l 181 94 q 183 84 181 92 q 188 68 185 76 q 209 30 193 51 q 246 8 225 8 q 265 14 257 8 q 281 26 274 19 q 297 56 293 40 q 304 121 301 72 q 304 278 306 160 l 303 397 l 289 385 q 211 354 251 354 q 149 372 174 354 q 110 416 125 389 q 87 475 94 443 q 75 538 79 507 q 73 576 74 550 q 72 633 72 603 q 72 692 72 663 q 74 740 72 722 l 75 767 l 56 765 q 39 765 43 765 q 32 768 35 765 q 28 777 29 771 q 31 788 28 783 q 45 793 33 792 q 94 797 57 794 q 117 798 108 797 q 131 799 125 799 q 142 798 139 799 q 147 796 144 797 q 150 772 164 786 q 125 767 146 768 l 106 765 l 104 758 q 104 726 104 754 q 105 663 104 697 q 106 596 106 628 q 107 554 107 564 q 130 448 114 485 q 175 397 146 411 q 211 388 193 388 q 260 405 236 388 q 296 443 283 422 l 306 456 l 306 579 l 306 735 l 303 767 l 292 767 q 275 771 278 767 q 271 779 271 775 q 281 793 271 790 q 310 798 289 796 q 356 801 332 800 q 403 803 379 803 q 439 804 426 804 q 453 801 450 804 q 460 785 461 794 q 450 774 460 776 l 443 771 l 444 740 q 447 672 446 721 q 447 566 447 622 q 447 460 447 510 q 444 389 446 410 q 432 213 439 292 q 418 99 425 135 q 347 -11 399 14 q 271 -31 313 -31 q 259 -30 264 -31 q 247 -28 254 -29 z "},"z":{"ha":431,"x_min":28,"x_max":403,"o":"m 368 -62 q 364 -42 364 -58 l 365 -26 l 285 -28 q 205 -30 253 -29 q 122 -31 157 -31 l 39 -32 l 33 -26 q 28 -15 28 -21 q 36 20 28 -14 q 58 112 44 54 q 90 246 71 169 q 129 408 108 322 q 168 569 150 494 q 200 701 186 644 q 222 792 214 758 q 229 825 229 825 q 209 825 228 825 q 163 826 190 825 l 97 828 l 97 821 q 79 794 97 794 q 68 800 74 794 l 63 806 l 64 833 q 67 870 65 861 q 72 883 68 879 q 83 888 76 888 q 101 871 100 888 l 101 863 l 154 861 q 202 860 175 861 q 247 860 229 860 q 288 860 264 860 q 326 858 311 860 q 360 856 354 857 q 369 853 367 856 q 375 840 375 847 q 367 806 375 839 q 345 717 358 774 q 313 587 332 661 q 274 429 294 513 q 225 235 244 313 q 194 111 206 158 q 176 42 182 64 q 169 12 171 19 q 168 5 167 4 q 169 6 169 6 l 181 6 q 226 6 196 6 q 288 8 257 7 q 342 9 318 8 q 365 10 365 10 q 368 21 368 10 q 383 40 372 40 q 392 39 389 40 q 401 26 400 35 q 400 -17 403 18 q 395 -59 397 -51 q 382 -68 393 -67 q 368 -62 374 -68 z "},"!":{"ha":217,"x_min":28,"x_max":189,"o":"m 132 118 q 178 63 178 113 q 161 16 178 38 q 118 -6 144 -6 q 112 -5 115 -6 q 103 -3 108 -4 q 76 20 83 4 q 68 54 68 36 q 75 81 69 72 q 107 113 86 104 q 117 117 114 115 q 124 119 119 119 q 127 119 125 119 q 132 118 129 118 m 186 867 q 189 849 189 861 q 188 788 189 836 q 185 616 186 688 q 181 491 183 544 q 177 398 179 438 q 172 321 175 358 q 169 285 171 306 q 168 250 168 265 q 163 210 165 218 q 150 200 161 203 q 136 197 146 197 q 117 197 126 197 q 92 199 96 197 q 81 203 85 201 q 76 213 78 206 q 73 234 74 219 q 71 275 72 249 q 61 456 68 367 q 47 636 54 544 q 42 700 46 663 q 36 765 39 738 q 31 819 32 799 q 28 849 29 839 q 28 863 28 860 q 31 869 29 867 q 47 878 35 876 q 110 879 60 879 q 151 879 136 879 q 172 878 165 879 q 182 874 179 876 q 186 867 185 871 z "},"\"":{"ha":306,"x_min":25,"x_max":278,"o":"m 110 879 q 139 853 132 868 q 146 814 146 838 q 144 792 146 799 q 140 776 143 786 q 131 754 138 768 q 119 728 125 740 q 108 706 113 715 q 100 696 103 696 q 90 694 99 694 q 56 699 72 694 q 31 721 40 703 q 30 740 28 728 q 43 781 32 753 q 65 851 65 836 q 61 856 64 856 q 56 855 58 856 q 51 854 54 854 q 37 856 40 854 q 31 864 33 857 q 39 882 25 878 q 72 885 47 885 q 97 884 92 885 q 110 879 103 883 m 274 833 q 276 803 278 818 q 265 761 275 789 q 243 714 258 736 q 199 692 228 692 q 165 701 182 692 q 147 729 147 710 q 151 744 147 735 q 165 776 154 753 q 188 826 181 807 q 197 857 194 846 l 197 868 l 189 869 q 169 885 169 872 q 190 899 169 899 q 243 880 221 899 q 274 833 265 861 z "},"#":{"ha":426,"x_min":25,"x_max":401,"o":"m 43 350 q 78 353 49 353 l 107 354 l 106 403 l 106 451 q 96 451 104 451 q 76 450 88 451 q 64 449 69 450 q 56 449 58 449 q 44 451 50 449 q 40 463 39 456 q 47 475 40 472 q 78 481 54 478 l 106 482 l 106 536 q 109 596 107 581 q 115 617 111 611 q 147 622 121 622 q 158 622 153 622 q 171 621 164 622 q 191 620 188 621 q 199 615 194 619 l 203 610 l 203 489 l 215 489 q 230 490 219 489 q 251 490 240 490 l 275 492 l 275 610 l 281 614 q 290 619 285 619 q 300 615 296 619 q 304 597 303 614 q 306 560 306 581 q 308 520 307 539 q 308 494 308 501 q 347 490 308 492 q 388 487 379 489 q 397 476 396 485 q 392 461 399 465 q 363 457 386 457 l 346 457 l 311 457 l 313 418 q 315 367 314 376 q 319 357 317 357 q 378 354 369 356 q 389 350 386 353 q 389 326 401 339 q 379 323 385 324 q 349 322 374 322 l 315 322 l 317 286 q 317 249 317 271 q 318 207 318 226 l 319 164 l 315 158 q 304 153 310 153 q 293 158 301 153 q 288 165 289 161 q 286 189 288 169 q 284 223 285 200 q 283 268 283 246 l 282 322 l 282 324 l 243 324 q 212 324 219 324 q 204 322 204 324 q 204 298 204 321 q 203 243 204 275 l 201 165 l 194 160 q 188 156 190 157 q 176 154 185 154 q 163 154 171 154 q 143 156 156 154 q 123 158 128 157 q 115 164 118 158 q 113 189 114 168 q 110 235 111 210 q 108 284 108 260 q 108 318 108 308 l 107 322 l 74 322 l 46 322 q 36 323 38 322 q 32 326 35 324 q 28 340 25 333 q 43 350 32 347 m 281 357 l 279 403 q 278 436 279 422 q 278 453 278 450 l 276 457 l 206 456 l 206 406 l 204 357 l 281 357 z "},"$":{"ha":428,"x_min":25,"x_max":386,"o":"m 169 -110 q 166 -103 167 -107 q 165 -85 165 -100 q 166 -63 165 -78 q 168 -37 167 -49 q 170 -17 169 -26 q 171 -7 171 -8 q 160 0 171 -4 q 101 61 110 18 q 98 71 99 69 q 94 71 97 72 q 78 68 81 68 q 64 78 68 68 q 71 94 61 89 q 87 100 74 96 q 116 109 100 104 q 145 118 132 114 q 160 122 158 122 q 172 115 167 122 q 174 101 176 108 q 167 94 171 96 q 147 86 163 92 q 132 81 133 83 q 136 63 131 78 q 154 39 139 47 q 185 31 169 31 q 226 47 208 31 q 253 92 244 64 q 256 142 258 111 q 244 201 253 174 q 228 245 238 224 q 205 292 218 267 q 172 350 192 318 q 125 425 153 382 q 83 491 96 469 q 63 529 69 513 q 30 648 35 588 q 42 757 25 708 q 86 833 57 803 q 153 869 115 863 l 160 871 l 160 911 q 162 947 161 942 q 165 957 163 953 q 176 961 169 961 q 188 955 185 961 q 190 942 190 949 l 190 899 l 192 869 l 201 867 q 236 853 222 863 q 265 829 250 843 q 288 801 283 811 l 292 790 l 301 794 q 317 799 310 799 q 328 793 324 799 q 331 775 336 785 q 325 771 329 772 q 317 767 321 769 q 301 760 311 765 q 279 750 290 756 q 249 736 254 736 q 236 750 236 736 q 240 760 236 757 q 254 771 243 764 q 265 779 265 779 q 258 793 265 783 q 242 810 250 803 q 215 821 231 821 q 175 806 196 821 q 146 774 154 790 q 133 710 131 744 l 133 690 l 157 644 q 176 606 167 625 q 190 579 186 586 q 201 563 196 572 q 210 547 207 554 q 222 528 214 542 q 240 500 231 514 q 261 468 250 486 q 279 439 272 450 q 295 413 286 428 q 311 390 304 399 q 365 305 350 338 q 383 236 379 272 q 385 215 386 224 q 383 188 385 206 q 351 93 378 140 q 285 18 325 46 q 247 -1 269 7 q 211 -8 224 -8 q 201 -12 203 -8 q 201 -25 201 -15 q 199 -46 200 -35 q 198 -69 199 -57 q 197 -86 197 -81 q 194 -105 197 -94 q 181 -115 192 -115 q 169 -110 174 -115 z "},"%":{"ha":528,"x_min":26,"x_max":501,"o":"m 88 676 q 51 705 60 686 q 43 750 43 724 q 58 812 43 782 q 106 854 74 842 q 119 856 110 856 q 157 844 139 856 q 186 810 175 832 q 182 728 204 771 q 150 690 171 704 q 103 675 129 675 q 88 676 90 675 m 101 779 q 94 741 94 760 q 101 714 94 722 q 111 708 107 708 q 143 731 129 708 q 160 768 157 753 q 151 804 163 789 q 139 813 146 811 q 114 804 121 813 q 101 779 107 796 m 382 153 q 406 108 401 138 q 396 49 411 78 q 343 -3 374 7 q 322 -6 339 -6 q 301 -3 307 -6 q 260 58 263 10 q 272 117 257 90 q 313 158 286 143 q 326 165 322 164 q 342 165 331 165 q 382 153 365 165 m 368 68 q 374 94 374 79 q 369 117 374 108 q 346 132 361 132 q 338 129 343 132 q 324 104 329 122 q 318 67 318 86 q 331 36 318 36 q 347 39 342 36 q 368 68 356 46 m 499 783 q 481 731 501 778 q 406 569 461 685 q 355 465 383 524 q 296 344 326 406 q 235 222 265 282 q 181 115 204 163 q 141 37 157 67 q 122 4 125 7 q 110 0 118 0 q 100 1 103 0 q 87 7 94 3 q 57 24 79 11 q 32 40 38 35 q 29 54 26 44 q 33 65 29 57 q 49 100 36 74 q 84 176 61 126 q 147 311 107 226 q 212 448 188 396 q 253 535 236 500 q 281 594 269 569 q 308 649 293 618 q 335 699 319 669 q 365 755 350 728 q 391 803 379 782 q 406 829 403 824 q 418 833 410 833 q 437 828 424 833 q 463 814 450 822 q 487 797 476 806 q 499 783 497 789 z "},"&":{"ha":525,"x_min":15,"x_max":497,"o":"m 368 -10 q 346 -7 351 -10 q 340 11 335 -1 q 365 21 343 19 l 381 21 l 372 32 q 361 45 369 36 q 346 63 353 54 l 329 83 l 313 71 q 229 17 276 42 q 133 -8 182 -8 q 32 67 58 -8 q 28 84 29 76 q 28 115 28 92 q 51 238 28 178 q 103 353 75 297 l 125 397 l 114 422 q 89 775 15 646 q 213 847 131 847 q 235 844 228 846 q 256 840 243 843 q 287 828 276 833 q 304 815 297 824 q 351 700 346 776 q 324 539 357 624 q 291 468 317 521 q 228 344 265 415 l 210 307 l 225 282 q 260 230 240 258 q 304 168 281 201 q 315 155 311 161 q 324 144 319 149 q 331 133 328 139 q 349 149 332 132 q 376 182 365 167 q 406 219 389 196 q 424 243 424 242 q 411 256 424 246 q 396 275 396 268 q 401 283 396 279 q 410 288 406 288 q 429 279 415 288 q 458 259 443 271 q 485 236 474 247 q 497 221 497 225 q 485 206 497 206 q 464 214 475 206 q 456 219 461 217 q 451 222 453 221 q 446 215 449 219 q 435 200 442 211 q 402 160 418 178 q 371 125 386 142 l 353 106 l 374 79 q 392 57 383 68 q 404 40 401 46 q 418 24 414 28 q 432 21 422 21 l 440 21 l 451 21 q 475 14 469 21 q 472 -7 482 3 l 468 -11 l 426 -11 q 392 -10 410 -10 q 368 -10 375 -10 m 189 38 q 240 61 206 40 q 300 103 275 82 l 307 110 l 275 153 q 244 194 261 171 q 217 233 228 218 q 197 263 201 257 q 190 267 192 269 q 181 244 188 263 q 168 207 175 226 q 153 156 160 182 q 144 108 147 131 q 142 69 142 86 q 147 47 143 53 q 174 36 158 36 q 189 38 183 36 m 185 511 q 239 627 222 586 q 261 700 256 668 q 231 801 274 769 q 196 813 215 813 q 128 771 157 813 q 100 715 108 744 q 93 646 92 686 q 102 561 93 604 q 132 465 111 518 q 142 441 139 446 q 146 438 144 436 q 158 460 147 439 q 185 511 169 482 z "},"(":{"ha":339,"x_min":18,"x_max":313,"o":"m 203 -17 q 190 -4 199 -15 q 169 22 181 7 q 145 55 157 38 q 124 88 133 72 q 40 301 61 192 q 36 535 18 411 q 98 731 50 635 q 229 886 146 826 q 264 904 257 904 q 266 903 265 904 q 269 903 267 903 q 292 885 276 900 q 310 863 308 869 q 308 849 313 856 q 289 821 304 843 q 238 740 258 779 q 201 656 218 701 q 155 431 164 543 q 168 218 146 318 q 179 174 171 201 q 199 118 188 147 q 222 63 210 89 q 243 25 233 38 q 250 3 253 11 q 229 -12 247 -4 q 210 -18 218 -18 q 203 -17 206 -18 z "},"'":{"ha":199,"x_min":25,"x_max":178,"o":"m 82 707 q 58 719 71 711 q 42 733 44 728 q 39 751 39 736 q 44 772 40 763 q 65 814 47 781 q 81 847 72 829 q 88 867 89 865 q 67 865 74 867 q 53 863 58 864 q 43 863 47 863 q 33 867 38 863 q 32 885 25 875 q 54 894 36 890 q 90 897 72 897 q 115 894 101 897 q 166 853 154 886 q 158 776 178 821 q 149 757 156 769 q 135 733 143 744 q 117 712 126 721 q 99 703 107 703 q 92 704 96 703 q 82 707 88 706 z "},")":{"ha":354,"x_min":28,"x_max":322,"o":"m 68 -22 q 47 -4 61 -19 q 29 18 32 11 q 32 31 28 25 q 51 60 36 38 q 102 140 82 101 q 139 225 122 178 q 185 449 176 338 q 172 661 194 561 q 160 706 168 679 q 142 760 153 732 q 121 813 132 788 q 99 854 110 839 q 90 876 89 868 q 102 887 93 881 q 121 897 111 893 q 131 899 125 899 q 136 897 133 899 q 149 885 140 896 q 170 860 158 875 q 194 828 182 846 q 217 793 207 810 q 301 578 279 688 q 304 344 322 468 q 281 243 297 294 q 240 145 265 192 q 181 58 215 99 q 104 -11 147 18 q 78 -24 86 -24 q 68 -22 72 -24 z "},"*":{"ha":349,"x_min":28,"x_max":321,"o":"m 107 607 q 92 624 92 614 q 97 644 92 626 q 110 685 103 663 l 128 740 l 114 740 q 97 740 107 740 q 78 738 86 739 q 66 736 71 736 q 58 736 61 736 q 35 746 43 736 q 29 769 28 757 q 42 789 31 782 q 57 792 44 792 q 74 792 61 792 q 99 794 86 793 l 129 797 l 125 804 q 99 850 110 831 q 88 872 88 869 q 100 889 88 883 q 122 894 113 894 q 132 888 128 893 q 149 860 136 883 q 164 836 161 836 q 176 861 167 836 q 185 882 181 872 q 192 894 189 892 q 204 899 196 899 q 229 889 219 899 q 229 863 236 882 q 215 828 224 851 q 207 803 207 804 q 211 803 208 803 q 221 801 214 801 q 235 802 228 801 q 253 803 243 803 l 278 803 q 303 801 297 803 q 315 792 310 799 q 320 776 319 786 q 318 760 321 767 q 301 751 313 753 q 258 746 290 749 q 244 745 251 746 q 232 744 238 744 q 221 743 226 743 q 231 722 219 742 q 257 681 243 703 q 268 642 274 653 q 249 628 265 632 q 240 626 246 626 q 227 635 233 626 q 203 671 221 643 q 185 699 192 688 q 176 713 178 711 l 172 703 q 164 679 169 693 q 151 640 156 654 q 143 619 146 626 q 140 610 140 613 q 138 607 139 607 q 126 604 135 604 q 107 607 118 604 z "},",":{"ha":167,"x_min":28,"x_max":139,"o":"m 68 -65 q 43 -47 46 -57 q 42 -33 40 -40 q 51 -10 44 -25 q 65 29 60 11 q 71 57 71 47 l 71 69 l 54 68 q 47 67 50 68 q 42 67 44 67 q 32 71 36 67 q 28 82 28 78 q 35 93 29 90 q 60 99 42 96 q 69 99 65 99 q 76 100 74 100 q 119 81 103 100 q 139 39 136 63 q 126 -28 139 13 q 114 -52 119 -44 q 100 -65 108 -60 q 86 -68 94 -68 q 68 -65 76 -68 z "},"+":{"ha":328,"x_min":28,"x_max":289,"o":"m 31 399 q 44 405 35 403 q 78 410 53 407 q 100 412 90 411 q 111 414 110 413 q 114 423 114 414 q 114 456 114 432 q 116 499 114 489 q 125 511 118 508 q 158 515 133 515 l 178 515 q 196 507 193 515 q 197 490 197 504 q 197 460 197 476 l 197 417 l 233 418 l 254 418 q 276 416 271 418 q 285 407 282 414 q 279 389 289 397 q 269 385 276 386 q 236 383 263 385 l 197 383 l 197 332 q 198 288 199 297 q 194 275 197 279 q 186 267 193 269 q 176 265 185 265 q 156 265 167 265 q 132 266 136 265 q 124 269 128 267 q 116 286 118 275 q 114 322 114 297 q 114 342 114 331 q 113 363 114 354 l 111 382 l 93 381 q 74 379 85 381 q 56 378 63 378 q 39 376 47 376 q 32 379 35 376 q 28 388 29 382 q 31 399 28 394 z "},"-":{"ha":336,"x_min":28,"x_max":294,"o":"m 36 371 q 31 386 33 375 q 28 408 28 397 q 40 438 28 432 q 72 442 46 439 q 130 447 97 444 q 196 451 163 449 q 250 453 229 453 l 274 453 l 281 444 q 288 431 286 439 q 292 417 290 424 q 294 396 294 408 q 284 381 293 383 q 222 375 275 378 q 174 372 201 374 q 121 369 147 371 q 74 367 94 368 q 46 367 53 367 q 36 371 44 367 z "},".":{"ha":169,"x_min":24,"x_max":151,"o":"m 63 -10 q 29 33 35 1 q 44 88 24 64 q 78 103 57 103 q 82 102 81 103 q 86 101 83 101 q 136 71 122 99 q 121 8 151 39 q 103 -6 111 -1 q 75 -11 93 -11 q 63 -10 65 -11 z "},"/":{"ha":478,"x_min":28,"x_max":457,"o":"m 88 0 q 67 14 81 4 q 43 31 53 24 q 30 47 32 40 q 32 64 28 53 q 54 110 35 71 q 101 203 74 149 q 159 320 128 257 q 219 440 190 383 q 269 538 247 496 q 297 593 290 581 q 323 640 311 617 q 340 671 335 663 q 349 688 344 681 q 357 699 354 696 q 374 706 361 706 q 412 703 390 706 q 439 699 433 701 q 440 661 457 690 q 431 641 438 654 q 419 615 425 628 q 388 547 406 583 q 339 442 371 510 q 301 363 318 399 q 264 288 283 326 q 221 206 244 250 q 165 104 197 163 q 138 53 150 76 q 122 22 125 29 q 110 3 115 8 q 94 -1 104 -1 q 88 0 89 -1 z "},":":{"ha":169,"x_min":28,"x_max":142,"o":"m 61 400 q 40 421 46 406 q 36 444 36 426 q 43 474 38 461 q 68 499 54 494 q 92 503 76 503 q 104 501 101 503 q 142 457 142 493 q 124 417 142 436 q 78 396 103 396 q 61 400 68 396 m 86 303 q 106 297 96 301 q 121 285 117 292 q 129 263 126 278 q 129 236 132 247 q 110 206 125 218 q 76 193 96 193 q 69 194 72 193 q 60 196 65 194 q 32 221 40 203 q 28 242 28 229 q 33 267 28 256 q 56 294 40 283 q 86 303 71 304 z "},";":{"ha":192,"x_min":28,"x_max":165,"o":"m 90 404 q 56 449 54 417 q 72 494 56 478 q 117 510 89 510 q 151 493 138 510 q 163 453 165 478 q 146 417 161 428 q 104 401 128 401 q 90 404 99 401 m 92 300 q 142 279 126 300 q 157 228 157 258 q 154 195 158 210 q 138 157 150 181 q 111 126 122 126 q 100 129 108 126 q 89 133 96 131 q 76 139 82 136 q 56 210 40 156 q 63 237 60 224 q 65 265 65 250 q 53 261 64 265 q 39 258 42 258 q 28 274 28 263 q 35 286 28 281 q 53 294 43 292 q 75 299 64 297 q 92 300 86 300 z "},"<":{"ha":358,"x_min":28,"x_max":321,"o":"m 228 301 q 176 326 206 311 q 118 356 146 342 q 68 383 90 371 q 40 400 46 396 q 28 417 29 407 q 35 435 28 428 q 69 457 38 438 q 139 499 101 476 q 209 541 176 522 q 244 561 242 560 q 251 563 247 563 q 265 554 264 563 q 256 533 269 542 q 233 521 251 532 q 193 496 215 510 q 153 469 171 481 q 131 456 135 458 q 122 449 122 451 q 131 444 124 447 q 150 438 139 442 q 185 422 161 433 q 236 395 210 410 q 284 366 263 381 q 311 340 306 351 q 311 300 321 322 q 285 278 301 278 q 228 301 278 278 z "},"=":{"ha":340,"x_min":28,"x_max":299,"o":"m 46 440 q 36 443 39 440 q 31 458 33 447 q 28 481 28 469 q 40 510 28 506 q 72 514 46 511 q 130 519 97 517 q 196 523 163 521 q 250 525 229 525 l 272 525 l 281 518 q 288 506 288 508 q 292 489 288 500 q 294 478 293 482 q 293 468 294 474 q 292 459 293 463 q 283 453 290 456 q 262 451 276 451 q 221 447 247 450 q 174 445 201 446 q 119 443 146 444 q 73 441 93 442 q 46 440 53 440 m 294 357 q 297 336 299 344 q 296 327 297 331 q 288 322 294 324 q 266 318 281 319 q 225 315 251 317 q 137 310 181 313 q 49 308 93 308 q 33 324 36 308 q 31 349 31 340 q 44 376 31 374 q 74 382 49 379 q 133 387 100 385 q 199 391 165 389 q 253 393 232 393 l 276 393 l 283 385 q 292 374 292 376 q 294 357 292 371 z "},">":{"ha":344,"x_min":24,"x_max":328,"o":"m 86 274 q 79 282 81 276 q 89 301 75 293 q 111 314 93 303 q 151 340 129 325 q 192 365 174 354 q 214 379 210 376 q 221 383 219 382 q 222 386 221 385 q 213 390 221 388 q 194 399 206 393 q 159 414 183 403 q 109 439 135 425 q 61 468 83 453 q 33 494 39 483 q 33 535 24 513 q 60 557 43 557 q 100 541 65 557 q 176 504 135 525 q 256 464 218 483 q 304 436 294 444 q 308 400 328 417 q 272 376 304 396 q 201 333 239 356 q 130 291 163 310 q 93 272 97 272 q 86 274 89 272 z "},"?":{"ha":494,"x_min":28,"x_max":476,"o":"m 147 103 q 178 86 167 103 q 188 44 190 69 q 158 -3 183 11 q 136 -7 153 -7 q 124 -6 126 -7 q 108 1 114 -3 q 97 11 103 6 q 83 49 83 28 q 103 86 83 69 q 147 103 124 103 m 457 725 q 457 578 476 656 q 422 488 447 531 q 362 412 397 446 q 283 352 326 378 q 196 311 240 326 q 167 301 181 306 q 149 293 154 296 l 138 286 l 138 253 l 138 196 l 139 172 l 133 168 q 124 164 129 164 q 115 165 118 164 q 108 174 110 168 q 104 194 107 179 q 103 220 104 204 q 103 252 103 236 q 103 281 103 268 q 106 297 104 294 q 117 314 108 307 q 146 332 125 321 q 258 413 208 364 q 322 535 307 463 q 331 615 329 571 q 328 690 333 660 q 315 735 324 713 q 293 774 307 757 q 260 803 279 792 q 215 814 240 814 q 208 813 213 814 q 201 813 204 813 q 132 779 154 806 q 109 747 121 767 q 100 725 97 728 q 114 719 103 722 q 124 715 119 717 q 132 711 129 713 q 135 695 139 704 q 124 686 132 686 q 110 690 122 686 q 83 697 97 693 q 55 706 68 701 q 38 713 42 711 q 28 726 28 717 q 38 739 28 735 q 40 740 39 739 q 42 740 40 740 q 56 736 46 740 l 69 733 l 71 738 q 146 835 90 796 q 263 875 201 875 q 385 834 332 875 q 457 725 439 793 z "},"_":{"ha":436,"x_min":28,"x_max":408,"o":"m 40 -4 q 29 28 32 3 q 31 47 28 38 q 42 58 35 56 q 82 64 46 61 q 165 69 118 67 q 263 74 213 72 q 344 76 313 76 q 377 74 369 76 q 392 65 385 72 q 396 58 394 63 q 399 51 397 54 q 401 43 400 47 q 404 36 403 39 q 407 21 408 29 q 403 10 406 14 q 392 5 401 7 q 363 1 383 3 q 304 -1 342 0 q 236 -4 275 -3 q 160 -7 197 -6 q 94 -9 124 -8 q 56 -10 65 -10 q 40 -4 46 -10 z "},"^":{"ha":294,"x_min":28,"x_max":265,"o":"m 239 668 q 225 703 236 672 q 192 804 214 733 q 185 826 189 817 q 182 836 182 835 q 175 826 181 836 q 156 783 167 807 q 134 738 144 760 q 115 701 124 717 q 103 683 106 686 q 64 672 85 672 q 44 675 56 672 q 29 688 32 678 q 33 706 28 693 q 56 757 38 718 q 106 860 89 828 q 125 893 122 892 q 151 896 131 896 q 182 893 174 896 q 194 883 189 890 q 208 853 199 876 q 225 807 215 836 q 244 749 235 778 q 259 700 253 721 q 265 676 265 679 q 249 664 263 664 q 239 668 243 664 z "},"]":{"ha":372,"x_min":28,"x_max":317,"o":"m 38 -36 q 32 -24 33 -33 q 29 22 31 -14 q 28 65 28 58 q 32 76 29 72 q 43 81 36 81 q 54 76 50 81 q 58 69 57 74 q 60 50 58 65 l 61 28 l 93 28 q 126 26 106 26 q 161 25 146 25 l 197 22 l 199 33 q 199 66 199 36 q 201 142 200 96 q 201 246 201 189 q 202 359 201 303 q 203 467 203 415 q 203 551 203 518 q 202 657 203 601 q 201 760 201 713 q 199 841 200 808 q 197 876 199 874 q 194 885 197 885 q 150 884 172 885 q 106 881 128 883 q 98 878 99 879 q 97 869 97 876 q 97 860 97 865 q 96 853 96 856 q 81 839 93 839 q 71 843 75 839 q 68 857 69 846 q 66 882 67 868 q 65 908 65 896 q 65 926 65 921 q 68 943 64 939 q 79 949 74 949 q 97 918 94 949 q 100 914 97 913 q 135 917 106 917 q 192 918 164 918 l 214 918 q 247 917 238 918 q 264 914 256 917 q 307 863 301 900 q 309 818 308 857 q 311 724 310 779 q 313 607 313 669 q 315 490 314 544 q 316 395 315 435 q 315 349 317 356 q 314 294 314 342 q 314 189 314 247 q 313 98 314 131 q 311 49 313 65 q 308 28 310 33 q 301 15 306 22 q 281 2 296 7 q 249 -5 265 -3 q 215 -8 232 -7 q 189 -8 199 -8 q 159 -8 174 -8 q 131 -7 144 -8 q 105 -4 119 -6 q 82 -3 90 -3 l 60 -1 l 60 -17 q 56 -35 60 -32 q 46 -39 51 -39 q 38 -36 43 -39 z "},"\\":{"ha":478,"x_min":21,"x_max":450,"o":"m 368 63 q 362 69 365 64 q 356 82 358 75 q 340 113 353 89 q 311 164 326 136 q 178 417 243 290 q 58 675 114 543 q 47 701 53 688 q 38 721 40 714 q 39 758 21 750 q 66 763 44 761 q 104 765 88 765 q 121 758 117 765 q 128 748 124 756 q 138 731 133 740 q 155 699 143 722 q 181 653 167 676 q 209 598 188 640 q 259 499 231 556 q 319 380 288 443 q 377 263 350 317 q 424 169 404 208 q 446 124 443 131 q 448 106 450 113 q 433 89 446 100 q 411 72 425 82 q 390 60 397 63 q 381 58 388 58 q 368 63 372 58 z "},"[":{"ha":344,"x_min":29,"x_max":317,"o":"m 256 -32 q 247 -7 247 -24 q 244 -1 247 -1 q 228 -3 242 -3 q 198 -5 215 -4 q 162 -6 181 -6 q 131 -7 143 -7 q 98 -5 107 -6 q 81 -1 89 -4 q 38 50 44 10 q 36 94 38 56 q 33 187 35 132 q 31 304 32 242 q 30 422 31 367 q 29 516 29 476 q 29 563 29 556 q 30 617 29 569 q 31 724 31 664 q 31 814 31 782 q 33 862 32 846 q 37 884 35 878 q 43 897 39 890 q 57 908 49 904 q 88 917 65 913 q 156 921 113 921 q 184 920 169 921 q 214 918 199 919 q 240 916 225 917 q 263 915 254 915 l 285 914 l 285 928 q 286 943 285 935 q 297 951 288 951 q 311 942 307 951 q 313 925 313 939 q 315 889 314 911 q 316 847 317 854 q 313 836 315 839 q 301 831 307 831 q 290 836 296 831 q 287 843 288 839 q 285 861 286 847 l 283 883 l 251 885 q 218 885 238 885 q 183 888 199 886 l 147 889 l 146 878 q 145 845 146 875 q 144 769 144 815 q 143 667 143 724 q 142 553 143 610 q 142 445 142 496 q 142 360 142 394 q 142 254 142 310 q 144 151 143 199 q 145 70 144 103 q 146 35 146 38 q 150 26 149 29 q 169 26 157 26 q 196 27 182 26 q 222 29 210 28 q 239 32 233 31 q 247 42 247 33 q 248 51 247 46 q 249 58 249 56 q 264 72 251 72 q 272 69 267 72 q 276 61 275 67 q 278 32 278 56 q 278 3 278 17 q 279 -14 279 -10 q 276 -32 281 -26 q 265 -36 272 -36 q 256 -32 260 -36 z "},"{":{"ha":363,"x_min":28,"x_max":335,"o":"m 315 -29 q 307 -23 311 -28 q 299 -11 303 -18 q 292 -3 294 0 q 263 -10 276 -8 q 225 -12 250 -12 q 151 9 179 -12 q 108 63 124 31 q 88 135 93 96 q 81 210 82 174 q 73 320 78 274 q 63 383 68 367 q 53 399 60 390 q 39 413 46 408 q 28 431 28 421 q 53 454 28 443 q 90 485 83 469 q 96 511 96 494 q 92 574 96 528 q 86 697 85 649 q 99 778 88 746 q 122 824 107 801 q 157 857 138 846 q 180 867 167 863 q 199 872 193 872 q 203 883 203 872 q 218 903 203 903 q 226 900 224 903 q 231 890 228 899 q 236 869 233 881 q 243 847 239 858 q 250 829 247 835 q 244 796 261 801 l 240 796 q 218 828 228 796 q 212 841 214 839 q 207 843 210 843 q 174 789 185 843 q 176 633 164 743 q 183 567 181 594 q 187 522 186 540 q 186 490 188 503 q 182 464 185 476 q 161 419 178 436 l 153 413 l 156 406 q 165 378 161 393 q 170 342 168 364 q 174 286 172 319 q 178 204 176 253 q 180 162 179 182 q 183 135 181 142 q 232 40 196 60 q 253 33 243 36 q 275 31 264 31 q 280 33 279 31 q 278 47 281 36 q 286 65 276 63 q 304 58 300 65 q 308 49 306 56 q 313 36 310 43 q 320 19 315 28 q 328 3 325 10 q 335 -15 335 -11 q 328 -26 335 -24 q 315 -29 322 -29 z "},"|":{"ha":158,"x_min":29,"x_max":131,"o":"m 47 -4 q 39 1 44 -4 q 36 6 38 4 q 34 22 35 8 q 33 66 33 35 q 31 156 32 97 q 29 293 29 210 q 29 460 29 376 q 29 611 29 543 q 31 703 29 679 q 35 751 33 743 q 44 764 36 760 q 64 767 49 765 q 93 768 79 768 q 110 767 107 768 q 123 758 121 764 q 128 719 125 751 q 130 610 131 679 q 126 471 129 540 q 123 319 124 407 q 125 106 122 232 q 126 35 126 57 q 125 8 126 13 q 115 -2 122 0 q 82 -6 108 -4 q 60 -6 69 -6 q 47 -4 50 -6 z "},"}":{"ha":363,"x_min":28,"x_max":335,"o":"m 143 -44 q 136 -39 139 -44 q 128 -14 133 -33 q 122 7 125 -4 q 115 25 118 18 q 109 51 108 43 q 119 61 110 58 l 124 61 q 146 29 136 61 q 151 16 150 18 q 157 14 153 14 q 190 68 179 14 q 188 225 200 114 q 181 290 183 264 q 177 335 178 317 q 177 367 176 354 q 181 393 178 381 q 190 419 183 407 q 203 438 196 431 l 211 446 l 207 453 q 199 478 203 464 q 194 515 196 493 q 190 571 192 538 q 186 653 188 604 q 183 695 185 671 q 176 744 181 719 q 160 788 171 768 q 132 817 150 807 q 92 828 110 828 q 84 825 85 826 q 86 810 83 824 q 78 792 88 797 q 60 799 64 792 q 56 808 58 801 q 51 822 54 814 q 44 839 49 829 q 36 854 39 849 q 28 874 28 871 q 43 886 28 886 q 65 868 56 886 q 72 860 69 857 q 101 867 88 865 q 139 869 114 869 q 213 849 186 869 q 255 795 240 828 q 275 723 269 763 q 283 647 281 683 q 291 537 286 583 q 301 474 296 490 q 311 458 304 467 q 325 444 318 450 q 335 426 335 438 q 311 403 335 414 q 274 372 281 388 q 268 346 268 363 q 272 283 268 329 q 278 160 279 208 q 265 79 276 111 q 242 34 257 56 q 207 1 226 13 q 184 -10 197 -6 q 165 -15 171 -15 q 161 -26 161 -15 q 158 -41 161 -37 q 143 -44 154 -44 z "},"~":{"ha":438,"x_min":28,"x_max":410,"o":"m 247 264 q 222 271 233 267 q 195 282 210 275 q 160 301 181 289 q 111 333 140 314 q 74 353 81 353 q 58 347 68 353 q 42 340 47 340 q 28 356 28 340 q 39 369 29 364 q 90 397 60 386 q 146 408 119 408 q 184 402 169 408 q 226 374 199 396 q 242 361 233 367 q 257 353 250 356 q 283 346 269 346 q 328 363 301 346 q 345 376 335 367 q 364 392 356 385 q 382 407 378 404 q 392 410 386 410 q 408 399 404 410 q 397 369 410 393 q 368 325 383 344 q 326 281 350 301 q 269 261 301 261 q 259 262 264 261 q 247 264 254 263 z "},"`":{"ha":199,"x_min":24,"x_max":171,"o":"m 125 700 q 106 723 119 703 q 65 788 93 743 q 49 813 57 800 q 38 831 42 825 q 33 865 24 853 q 55 878 38 871 q 83 889 72 886 q 88 890 86 889 q 92 890 89 890 q 133 846 115 890 q 147 815 140 832 q 158 781 153 797 q 167 751 164 764 q 171 733 171 738 q 147 703 171 714 q 136 699 139 700 q 132 697 133 699 q 125 700 131 697 z "},"":{"ha":544,"x_min":25,"x_max":518,"o":"m 274 -10 q 205 33 233 0 q 158 108 176 65 q 130 196 139 150 q 118 276 121 242 l 117 297 l 83 296 q 61 294 69 294 q 47 294 53 294 q 38 296 40 294 q 33 300 36 297 q 33 318 25 310 q 46 323 36 322 q 93 326 56 324 l 115 328 l 117 371 q 120 402 119 389 q 121 417 121 415 l 122 422 l 81 421 q 44 421 50 421 q 35 424 38 421 q 30 435 29 428 q 36 444 31 442 q 58 450 40 449 q 103 453 75 451 l 125 453 l 128 472 q 139 521 133 499 q 151 565 144 543 q 231 699 179 649 q 340 750 282 750 q 394 740 367 750 q 443 713 422 729 q 451 707 451 704 l 454 710 q 460 717 458 714 q 474 724 467 724 q 482 719 478 724 q 487 707 489 714 q 471 682 485 700 q 457 663 464 672 q 446 647 450 653 q 433 633 438 633 q 428 632 432 632 q 416 638 421 632 q 414 650 411 643 q 424 669 414 657 l 432 681 l 425 689 q 415 696 415 696 l 410 696 q 378 699 393 699 q 368 698 372 699 q 361 697 364 697 q 328 672 343 690 q 299 632 313 654 q 277 587 286 610 q 263 547 268 564 q 254 520 258 536 q 247 489 250 504 q 241 463 243 474 q 240 451 239 453 q 254 449 242 450 q 285 447 267 449 q 334 443 325 444 q 349 438 343 442 q 350 414 364 425 q 339 410 346 410 q 331 410 336 410 q 317 411 325 411 q 242 415 261 415 l 236 415 q 234 403 235 415 q 233 374 233 390 l 232 333 l 285 335 l 339 335 l 344 331 q 344 307 356 318 q 333 302 340 303 q 288 301 326 301 l 236 300 l 236 296 q 238 282 236 293 q 242 258 239 271 q 247 230 244 244 q 251 206 250 215 q 264 157 256 185 q 286 103 272 129 q 319 60 300 78 q 365 42 339 42 q 380 42 376 42 q 390 47 383 43 q 413 65 401 54 q 435 88 424 76 l 446 101 l 438 111 q 421 133 424 126 q 425 147 418 140 q 433 151 429 151 q 450 141 438 151 q 476 117 463 131 q 500 90 489 103 q 514 72 511 76 q 511 56 518 61 q 501 50 506 50 q 482 63 494 50 l 469 75 l 451 57 q 388 6 424 26 q 308 -14 351 -14 q 274 -10 286 -14 z "},"":{"ha":625,"x_min":18,"x_max":603,"o":"m 388 -15 q 310 4 364 -12 q 231 23 263 17 q 176 29 200 29 q 69 -7 118 29 q 58 -11 64 -11 q 46 6 46 -11 q 49 18 46 14 q 68 35 53 22 q 116 80 100 60 q 140 124 132 100 q 153 179 150 150 q 153 253 156 208 q 151 289 153 269 q 148 326 150 308 q 144 355 146 343 q 143 368 143 367 l 114 368 q 78 366 90 368 q 57 356 67 364 q 42 350 46 350 q 32 354 36 350 q 51 388 18 371 q 76 397 64 394 q 111 400 89 399 q 131 401 122 401 q 139 403 139 401 q 138 412 139 404 q 136 431 138 419 q 130 540 131 488 q 135 621 129 593 q 150 676 140 647 q 176 727 160 704 q 217 765 193 750 q 271 779 240 779 q 343 756 315 779 l 349 750 l 358 757 q 374 764 369 764 q 383 760 379 764 q 388 745 390 753 q 367 722 385 738 q 335 694 343 700 q 324 689 328 689 l 321 689 q 307 706 304 689 q 318 719 310 711 l 328 728 l 322 733 q 308 743 318 739 q 293 746 297 747 q 265 717 278 742 q 247 657 253 693 q 245 565 242 625 q 258 428 249 504 q 263 402 261 413 q 264 390 264 392 q 269 389 264 389 q 292 392 276 389 q 324 400 308 394 q 340 404 335 404 q 353 397 349 404 q 331 367 368 381 q 303 360 319 364 q 275 356 286 357 q 269 351 269 356 q 272 308 269 347 q 235 78 281 172 l 225 60 l 250 54 q 281 47 261 51 q 318 36 300 42 q 353 26 336 31 q 375 21 369 22 q 394 19 382 19 q 419 18 406 18 q 470 22 447 18 q 515 43 493 26 l 522 47 l 515 56 q 504 79 503 69 q 517 89 508 89 q 533 79 525 89 q 547 69 538 76 q 567 56 556 63 q 584 43 576 49 q 593 35 592 38 q 586 13 603 19 q 581 11 585 11 q 561 21 575 11 l 553 28 l 540 19 q 487 -8 515 -1 q 426 -15 458 -15 q 413 -17 419 -17 q 401 -17 407 -17 q 388 -15 389 -17 z "},"":{"ha":574,"x_min":13,"x_max":546,"o":"m 235 174 q 108 244 158 189 q 38 374 57 300 q 57 567 13 469 q 99 630 72 597 q 158 689 125 663 q 229 733 192 715 q 304 750 267 750 q 398 722 354 750 q 475 652 442 694 q 527 558 508 610 q 546 460 546 507 q 523 356 546 408 q 462 263 500 304 q 374 195 424 221 q 271 169 325 169 q 235 174 254 169 m 315 208 q 415 265 367 222 q 489 361 464 307 q 500 535 529 447 q 474 590 492 558 q 432 649 456 621 q 381 695 408 676 q 325 714 353 714 q 319 713 322 714 q 314 713 317 713 q 270 697 290 710 q 222 657 250 685 q 151 547 174 608 q 128 418 128 486 q 138 337 128 371 q 171 272 147 303 q 213 231 186 251 q 256 206 240 210 q 274 204 258 204 q 295 205 283 204 q 315 208 307 206 m 268 322 q 207 371 225 333 q 189 449 189 408 q 197 502 189 474 q 219 555 204 531 q 257 595 235 579 q 308 611 279 611 q 369 589 347 611 q 376 565 381 576 q 365 557 372 557 q 350 565 358 557 l 342 574 l 333 569 q 326 564 331 567 q 319 558 322 561 q 301 521 310 546 q 289 469 293 496 q 288 429 286 454 q 293 393 289 404 q 301 374 296 383 q 308 363 306 365 q 339 383 314 358 q 349 393 344 389 q 356 399 354 397 q 374 392 367 401 q 372 371 376 379 q 334 335 361 351 q 285 319 307 319 q 268 322 279 319 z "},"":{"ha":494,"x_min":19,"x_max":467,"o":"m 328 561 q 306 605 308 575 q 324 653 304 635 q 338 663 332 661 q 356 665 344 665 q 407 629 396 665 q 399 579 417 601 q 347 556 378 556 q 328 561 339 556 m 457 -53 q 467 -66 467 -57 q 457 -79 467 -75 q 455 -80 456 -79 q 451 -81 454 -81 q 447 -80 449 -81 q 439 -78 444 -79 l 425 -74 l 424 -78 q 412 -102 421 -85 q 396 -129 403 -119 q 324 -193 369 -169 q 231 -217 278 -217 q 213 -215 218 -217 q 100 -168 146 -207 q 38 -67 54 -129 q 36 82 19 3 q 134 247 60 178 q 299 349 208 317 q 346 367 332 358 l 357 372 l 358 397 q 358 424 358 408 q 357 451 357 440 q 356 483 354 475 q 364 493 357 490 q 371 494 367 494 q 389 479 385 494 q 390 460 389 476 q 390 422 390 443 q 390 367 392 379 q 381 347 389 356 q 369 339 378 344 q 349 326 360 333 q 237 244 286 294 q 172 124 188 194 q 163 43 164 88 q 165 -32 161 -1 q 178 -75 169 -53 q 200 -115 186 -97 q 233 -143 214 -132 q 276 -154 251 -154 q 293 -153 288 -154 q 363 -119 340 -146 q 385 -88 374 -108 q 393 -65 396 -68 l 389 -64 l 381 -60 q 363 -51 368 -57 q 359 -35 356 -44 q 371 -26 363 -26 q 385 -30 374 -26 q 412 -37 397 -33 q 440 -47 426 -42 q 457 -53 453 -51 z "},"":{"ha":426,"x_min":28,"x_max":400,"o":"m 397 267 q 376 174 400 214 q 304 114 351 133 q 218 90 268 99 q 204 88 211 89 q 194 86 197 88 l 189 85 l 189 -25 l 207 -26 q 233 -30 225 -28 q 243 -36 240 -32 q 243 -56 251 -46 q 238 -60 240 -58 q 224 -61 236 -61 q 207 -60 217 -61 q 182 -60 197 -60 l 160 -60 q 133 -60 146 -60 q 104 -61 119 -60 q 72 -63 85 -62 q 51 -64 58 -64 q 36 -62 44 -64 q 28 -50 28 -60 q 33 -40 28 -43 q 49 -35 38 -35 q 63 -33 61 -35 q 64 53 64 -32 q 65 115 64 85 q 66 178 65 144 q 69 249 67 211 q 72 336 71 288 q 76 440 75 382 q 79 548 78 497 q 81 635 81 599 q 79 675 81 671 l 78 682 l 65 681 l 57 681 q 51 681 53 681 q 46 683 49 682 q 41 697 40 689 q 49 707 42 704 q 62 710 51 708 q 86 715 72 713 q 114 719 100 717 q 136 721 128 721 q 250 698 199 721 q 318 608 301 675 q 324 573 322 593 q 324 533 325 553 q 309 467 321 494 q 274 415 297 439 l 261 403 l 274 400 q 397 267 385 379 m 199 406 l 203 407 l 217 414 q 285 503 268 444 q 288 524 288 511 q 290 552 289 538 q 290 580 290 567 q 286 600 289 593 q 261 648 278 629 q 214 678 244 667 l 204 682 l 203 565 q 201 476 201 517 q 200 426 200 436 l 199 406 m 358 218 q 362 281 368 249 q 338 333 356 314 q 221 376 301 372 l 200 376 l 199 356 q 197 316 197 346 q 194 254 196 286 q 192 191 193 222 q 190 149 190 160 l 189 119 l 199 121 q 213 124 204 122 q 232 128 222 125 q 319 160 290 139 q 358 218 347 181 z "},"":{"ha":317,"x_min":32,"x_max":294,"o":"m 81 249 q 71 254 78 250 q 57 263 64 258 q 36 282 40 274 q 36 301 32 290 q 49 319 39 306 q 71 348 58 332 q 96 379 83 364 q 117 403 108 394 l 124 411 l 99 447 q 74 486 78 478 q 78 500 71 494 q 88 504 82 504 q 99 499 93 504 q 109 485 101 496 q 125 464 117 475 l 144 436 l 168 458 q 208 493 193 483 q 238 503 222 503 q 268 497 250 503 q 293 479 286 490 q 294 472 294 475 q 286 458 293 468 q 265 432 279 449 q 226 386 251 415 l 203 358 l 222 335 q 239 315 231 325 q 251 300 247 304 q 264 282 261 289 q 251 258 274 264 l 249 258 q 232 272 244 258 q 216 289 225 278 q 199 310 207 300 l 181 333 l 176 329 q 164 316 174 326 q 142 292 154 306 q 108 255 117 264 q 92 246 99 246 q 81 249 89 246 z "},"":{"ha":339,"x_min":31,"x_max":314,"o":"m 153 463 q 128 479 136 467 q 124 510 121 492 q 142 542 128 529 q 153 550 149 549 q 174 553 158 551 q 188 552 185 553 q 197 547 192 551 q 213 520 208 538 q 210 490 217 503 q 199 476 207 483 q 183 465 190 468 q 168 463 176 463 q 153 463 160 463 m 313 396 q 313 378 314 383 q 308 367 311 374 q 274 349 299 351 q 240 347 263 347 q 186 346 218 346 l 138 346 q 89 348 107 347 q 62 349 71 349 q 49 352 53 350 q 42 357 46 354 q 31 392 32 367 q 42 410 31 406 q 63 413 44 411 q 109 415 82 414 q 169 416 136 415 q 232 417 201 417 l 303 417 l 308 411 q 313 396 313 407 m 189 315 q 215 291 208 308 q 213 257 221 274 q 185 231 203 238 q 147 224 167 224 q 122 238 132 226 q 115 265 113 250 q 137 300 119 281 q 174 319 154 319 q 189 315 181 319 z "},"":{"ha":338,"x_min":24,"x_max":310,"o":"m 32 476 q 45 482 35 479 q 69 487 56 485 q 94 490 82 489 q 113 492 107 492 q 115 533 115 492 q 117 577 115 568 q 126 589 119 586 q 158 593 135 593 q 179 594 167 594 q 192 592 189 594 q 197 585 194 590 q 198 568 197 582 q 199 538 199 554 l 199 494 l 235 496 l 256 496 q 277 494 272 496 q 285 485 282 492 q 281 467 289 475 q 270 463 278 464 q 238 463 263 463 l 199 461 l 199 410 q 199 367 199 376 q 196 353 199 357 q 188 344 193 347 q 176 343 185 343 q 157 343 168 343 q 133 344 138 343 q 125 349 129 344 q 117 364 119 353 q 115 400 115 375 q 115 422 115 410 q 114 440 114 433 l 113 460 l 94 458 q 75 458 86 458 q 56 456 64 457 q 40 454 47 454 q 33 457 36 454 q 32 476 24 465 m 56 296 q 87 301 61 299 q 145 306 113 303 q 211 310 178 308 q 265 311 244 311 l 289 311 l 296 304 q 303 292 303 297 q 304 285 303 289 q 307 275 306 281 q 310 254 310 268 q 299 240 308 243 q 238 235 290 238 q 190 232 217 233 q 136 229 163 231 q 89 227 110 228 q 61 226 68 226 q 46 242 49 226 q 43 267 43 258 q 56 296 43 290 z "},"":{"ha":350,"x_min":28,"x_max":322,"o":"m 40 460 q 29 478 31 467 q 36 496 28 489 q 71 517 39 499 q 140 559 103 536 q 210 601 178 582 q 246 621 242 619 q 253 622 249 622 q 265 614 264 622 q 256 594 272 601 q 235 581 253 592 q 193 556 217 569 q 153 529 171 540 q 131 515 135 518 q 124 508 122 510 q 132 506 128 507 q 150 497 136 503 q 187 481 163 492 q 237 456 211 469 q 284 427 263 442 q 311 400 306 413 q 312 360 322 382 q 285 338 301 338 q 241 355 278 338 q 161 394 204 372 q 82 435 118 415 q 40 460 46 456 m 307 303 q 317 283 311 297 q 321 261 322 268 q 315 251 319 256 q 306 246 311 246 q 286 245 303 246 q 246 243 269 244 q 195 241 225 242 q 137 239 165 240 q 86 237 108 238 q 57 236 64 236 q 46 239 49 236 q 35 265 38 243 q 36 283 33 275 q 46 294 39 292 q 90 301 56 299 q 164 306 124 304 q 242 309 204 308 q 296 310 279 310 q 307 303 304 306 z "},"":{"ha":436,"x_min":28,"x_max":417,"o":"m 88 140 q 83 150 83 149 q 92 172 83 153 q 111 218 100 192 q 133 269 122 244 q 147 306 143 294 l 157 329 l 51 326 l 46 331 q 35 355 38 338 q 36 383 32 372 q 42 392 39 389 q 51 396 44 394 q 73 399 58 397 q 114 401 88 400 q 161 406 142 404 q 183 407 181 407 q 190 411 188 407 q 200 435 193 415 q 204 447 203 442 q 207 454 206 451 q 210 463 208 458 q 185 463 208 463 q 128 461 161 463 q 85 460 100 460 q 60 460 69 460 q 47 460 49 460 q 42 463 44 460 q 28 496 31 471 q 32 515 28 508 q 42 526 36 524 q 86 532 46 529 q 222 542 126 535 l 240 543 l 250 567 q 261 594 254 576 q 275 626 268 611 q 308 693 299 678 q 325 708 317 708 q 338 701 333 708 q 338 686 342 693 q 323 658 329 669 q 310 629 317 646 q 301 606 306 619 q 290 578 296 592 q 281 556 285 565 q 278 544 278 546 l 300 544 l 322 544 q 374 543 368 544 q 396 514 388 539 q 393 474 410 482 q 387 472 392 472 q 370 470 382 471 q 336 468 358 469 q 276 465 314 467 l 247 464 l 242 450 q 237 438 239 444 q 232 425 235 431 q 228 411 228 417 q 231 411 229 411 q 236 410 232 410 q 249 410 242 410 q 265 411 256 411 q 305 412 288 411 q 336 413 322 413 q 382 410 374 413 q 393 401 388 407 q 399 390 399 394 q 403 378 399 386 q 397 342 417 349 q 228 331 388 338 l 194 329 l 181 297 q 133 185 153 229 q 110 138 113 140 q 100 135 107 135 q 88 140 92 135 z "},"":{"ha":358,"x_min":26,"x_max":331,"o":"m 290 285 q 301 278 297 285 q 311 259 306 274 q 315 238 317 244 q 300 222 313 222 q 280 222 297 222 q 239 219 263 221 q 145 215 192 217 q 51 213 99 213 q 40 214 42 213 q 29 240 32 218 q 40 269 26 265 q 81 276 47 274 q 157 281 115 279 q 237 284 199 283 q 290 285 275 285 m 318 475 q 329 457 328 468 q 322 439 331 446 q 290 418 321 438 q 223 377 260 399 q 154 337 186 356 q 117 315 122 318 q 106 311 111 311 q 99 314 104 311 q 93 321 97 314 q 103 340 88 332 q 124 353 106 343 q 164 379 142 364 q 206 404 188 393 q 228 418 224 415 q 235 425 235 425 q 227 430 235 426 q 208 438 219 433 q 171 454 194 443 q 122 478 147 465 q 76 506 97 492 q 46 535 54 521 q 46 574 36 551 q 74 597 56 597 q 114 581 79 597 q 190 544 149 565 q 269 503 232 524 q 318 475 307 483 z "},"":{"ha":486,"x_min":28,"x_max":460,"o":"m 125 -4 q 94 -2 108 -3 q 76 -1 79 -1 q 62 9 65 1 q 65 24 58 17 q 72 27 68 26 q 86 28 75 28 l 96 26 l 99 35 q 100 43 99 38 q 103 54 101 49 q 107 72 104 60 q 113 97 110 83 q 120 125 117 111 q 126 147 124 139 q 131 161 129 156 q 132 168 132 167 q 124 169 128 168 l 103 169 q 73 172 79 169 q 67 185 67 175 q 74 197 67 194 q 108 200 81 199 l 142 200 l 150 229 q 153 241 153 236 q 156 249 154 246 q 158 257 157 253 q 147 258 158 258 q 121 260 136 258 q 94 260 106 260 q 81 263 83 261 q 76 279 72 268 q 84 287 78 285 q 111 289 90 289 l 129 289 q 162 290 154 289 q 171 292 169 290 q 176 307 171 294 q 186 338 181 319 q 198 374 196 365 q 199 386 200 382 q 175 453 189 415 q 145 531 161 492 q 113 608 129 571 q 82 675 96 646 l 68 703 l 53 701 q 38 702 42 701 q 32 706 35 703 q 28 715 29 708 q 32 725 28 722 q 49 731 36 728 q 78 735 63 733 q 109 739 94 738 q 129 740 124 740 q 146 717 153 736 q 138 710 144 713 q 128 708 132 707 l 111 708 l 101 707 l 121 665 q 172 554 149 608 q 210 456 194 500 q 213 448 213 451 q 215 442 214 444 q 218 435 217 438 q 223 445 219 435 q 232 471 226 456 q 292 649 271 592 q 303 681 299 668 q 308 694 308 693 q 306 696 307 694 l 299 696 q 285 700 292 696 q 286 721 274 711 q 294 724 289 724 q 321 726 300 725 q 382 731 351 729 q 443 732 413 732 q 457 720 454 729 q 453 704 460 711 q 438 700 449 700 l 433 700 q 424 692 428 700 q 406 644 421 685 q 392 608 399 626 q 378 567 386 590 q 360 511 371 543 q 333 432 349 479 q 308 354 319 390 q 292 307 296 318 l 283 282 q 299 281 288 282 q 324 278 311 279 q 347 274 336 276 q 358 271 357 272 q 365 256 365 265 q 356 244 364 247 q 346 243 354 243 q 333 243 342 243 q 311 246 325 243 q 291 247 300 247 q 271 247 282 247 l 268 240 q 266 233 267 238 q 263 224 265 229 l 254 203 l 260 201 q 276 201 263 201 q 304 200 289 200 q 338 199 332 200 q 346 196 343 199 q 347 172 360 185 q 337 169 344 169 q 293 168 329 168 l 242 167 l 232 133 q 215 78 224 110 q 204 35 207 47 l 203 28 l 211 28 q 231 18 225 28 q 228 -1 236 8 q 220 -5 225 -4 q 194 -6 215 -6 q 163 -5 183 -6 q 125 -4 143 -4 z "},"":{"ha":436,"x_min":28,"x_max":411,"o":"m 250 -78 q 244 -29 244 -72 q 243 -19 243 -24 q 243 -11 243 -14 l 242 -4 l 213 -4 q 144 13 169 -4 q 92 65 118 31 q 32 199 44 129 q 29 231 31 211 q 28 272 28 250 q 31 314 29 293 q 33 350 32 335 q 53 451 39 389 q 94 573 68 514 q 158 675 121 632 q 247 718 196 718 l 261 718 l 261 743 q 262 765 261 753 q 263 786 263 778 q 265 802 264 799 q 268 808 265 806 q 276 813 272 813 q 288 807 282 813 l 292 803 l 292 714 l 307 708 q 340 694 322 703 q 364 679 357 686 l 371 672 l 374 678 q 394 692 383 692 q 403 689 400 692 q 397 658 411 681 q 387 641 393 651 q 375 621 381 631 q 353 597 361 597 q 347 599 350 597 q 346 633 329 606 l 354 646 l 349 653 q 324 668 342 660 q 300 676 307 676 q 264 657 283 676 q 219 575 236 626 q 186 429 201 524 q 166 270 169 333 q 169 164 163 207 q 184 110 175 132 q 208 67 193 88 q 247 35 233 35 q 278 48 257 35 q 321 82 299 61 l 335 96 l 325 107 q 317 133 310 125 q 328 140 319 139 q 336 138 333 140 q 349 125 339 136 l 383 90 q 401 72 397 76 q 404 64 404 68 q 399 53 404 58 q 389 49 393 49 q 368 63 382 49 l 358 71 l 353 65 q 324 40 333 47 q 300 24 314 32 q 276 8 283 13 q 274 -1 274 7 q 276 -53 274 -8 q 276 -69 276 -65 q 272 -76 275 -72 q 261 -82 268 -82 q 250 -78 254 -82 z "},"":{"ha":217,"x_min":28,"x_max":189,"o":"m 76 558 q 47 578 56 563 q 39 613 39 593 q 50 652 39 633 q 83 678 61 671 q 97 681 89 681 q 113 678 107 681 q 143 651 131 672 q 148 638 147 642 q 147 621 149 633 q 131 577 147 597 q 89 557 114 557 q 76 558 81 557 m 181 -89 q 186 -142 185 -122 q 188 -173 188 -162 q 188 -187 189 -183 q 186 -194 188 -192 q 176 -201 183 -199 q 155 -203 174 -203 q 114 -204 136 -204 q 72 -204 92 -204 q 46 -204 53 -204 q 31 -192 33 -200 q 28 -174 28 -186 q 28 -112 28 -161 q 31 60 29 -12 q 34 185 32 132 q 39 278 36 238 q 44 354 42 318 q 47 390 46 369 q 49 425 49 410 q 53 465 51 457 q 68 476 56 472 q 96 479 82 479 q 118 478 107 479 q 132 475 129 478 q 138 469 136 472 q 142 460 140 467 q 144 439 143 453 q 146 400 144 425 q 149 335 147 369 q 152 268 150 301 q 156 204 154 235 q 160 150 158 174 q 165 98 163 131 q 168 39 167 65 q 174 -24 171 13 q 181 -89 178 -61 z "},"":{"ha":332,"x_min":28,"x_max":306,"o":"m 61 851 q 71 856 67 854 q 81 857 75 857 q 122 825 108 857 q 127 803 128 815 q 122 779 126 790 q 94 753 110 760 q 78 750 86 750 q 58 754 65 750 q 35 777 42 763 q 28 810 28 792 q 50 847 28 846 q 56 849 53 849 q 61 851 58 850 m 257 854 q 291 838 276 854 q 303 801 306 821 q 286 768 300 782 q 254 754 272 754 q 250 755 251 754 q 246 756 249 756 q 218 771 232 758 q 208 806 207 786 q 224 841 210 828 q 257 854 238 854 z "},"":{"ha":614,"x_min":28,"x_max":589,"o":"m 549 -37 q 527 -37 542 -37 q 497 -35 513 -36 q 459 -30 465 -32 q 453 -19 453 -28 q 476 -4 453 -4 l 493 -3 l 492 3 q 489 17 492 6 q 483 43 486 28 q 476 82 482 50 q 463 149 471 114 q 450 214 456 185 q 443 244 444 243 l 425 244 q 376 244 407 244 q 315 244 344 244 q 263 242 285 243 q 240 240 240 242 q 231 205 240 240 q 212 128 222 169 q 193 50 201 86 q 185 11 185 14 q 194 8 185 8 q 217 -1 214 8 q 213 -21 221 -14 q 199 -24 210 -24 q 182 -24 192 -24 q 154 -22 172 -24 q 109 -22 133 -22 q 74 -21 85 -21 l 40 -21 q 28 -7 28 -21 q 42 7 28 4 q 46 10 44 8 q 49 24 47 13 q 67 103 51 40 q 108 255 83 165 q 160 450 132 344 q 218 657 189 556 q 235 713 228 689 q 243 742 242 738 q 243 753 246 750 q 232 767 232 756 q 251 782 232 782 q 290 783 267 782 q 353 785 314 783 l 401 786 l 407 782 q 413 769 413 778 q 396 753 413 754 q 388 750 388 753 l 389 747 q 390 744 389 746 q 390 740 390 743 q 399 713 393 735 q 411 667 404 692 q 424 618 418 642 q 432 583 431 594 q 440 552 435 572 q 450 513 444 532 q 460 470 454 493 q 468 432 465 447 q 478 389 472 417 q 492 335 485 361 q 508 260 499 306 q 527 169 518 215 q 544 82 536 122 q 556 21 551 42 q 560 3 556 11 q 569 -8 563 -7 q 585 -20 581 -11 q 581 -36 589 -29 q 571 -39 578 -39 q 563 -39 568 -39 q 549 -37 557 -39 m 325 276 q 363 278 342 278 q 400 278 385 278 l 436 278 l 435 283 q 426 322 433 288 q 407 410 418 357 q 394 467 401 435 q 383 518 388 499 q 358 626 364 601 q 350 651 351 651 q 329 579 339 615 q 310 513 321 549 q 292 449 300 478 q 281 408 288 436 q 266 350 274 379 q 253 298 258 321 q 247 274 247 275 l 249 274 q 251 272 249 272 q 258 273 254 272 q 267 274 261 274 q 291 274 274 274 q 325 276 308 275 m 222 907 q 232 911 228 910 q 242 913 236 913 q 283 881 269 913 q 288 858 289 871 q 283 835 288 846 q 256 808 271 815 q 239 806 247 806 q 219 810 226 806 q 196 833 203 818 q 189 865 189 847 q 211 903 189 901 q 217 905 214 904 q 222 907 219 906 m 418 910 q 452 893 438 910 q 464 857 467 876 q 447 824 461 838 q 415 810 433 810 q 411 810 413 810 q 407 811 410 811 q 379 826 393 814 q 369 861 368 842 q 385 897 371 883 q 418 910 399 910 z "},"":{"ha":581,"x_min":26,"x_max":558,"o":"m 460 13 q 424 14 446 14 q 386 14 403 14 q 357 15 369 14 q 342 15 344 15 q 336 33 333 21 q 358 43 340 42 l 371 44 l 369 71 l 369 97 q 364 94 367 96 q 350 85 356 89 q 290 53 322 68 q 226 38 258 38 q 157 55 189 38 q 101 101 125 72 q 60 163 76 129 q 36 231 43 197 q 28 322 26 272 q 43 414 31 371 q 71 480 54 447 q 112 538 88 513 q 167 579 136 563 q 236 597 199 596 q 291 590 268 597 q 342 568 314 583 q 357 561 353 563 q 363 557 360 558 q 361 584 364 558 q 356 629 358 610 q 336 701 350 661 q 290 754 322 740 q 278 759 283 758 q 256 760 272 760 q 202 750 235 760 q 156 726 169 740 q 153 722 153 724 q 164 708 154 719 q 172 698 168 703 q 178 690 176 693 q 176 676 181 682 q 164 669 171 669 q 160 670 161 669 q 158 671 160 671 q 146 683 157 671 q 122 708 135 694 q 99 735 110 722 q 88 751 89 749 q 90 765 85 758 q 103 771 94 771 q 110 769 107 771 q 125 753 113 767 l 131 744 l 142 753 q 206 784 171 774 q 278 794 242 794 q 365 772 328 794 q 426 712 401 749 q 467 631 451 675 q 490 544 482 586 q 503 477 499 507 q 510 418 508 447 q 513 358 513 389 q 511 286 513 326 q 508 213 510 253 q 503 138 506 174 q 499 78 501 103 q 494 49 496 53 q 499 47 494 47 q 518 46 503 46 q 541 44 538 44 q 547 39 544 43 q 547 17 558 28 q 540 13 544 14 q 517 11 536 13 q 489 12 506 11 q 460 13 472 13 m 314 103 q 332 114 321 107 q 350 128 343 121 l 368 142 l 368 326 l 367 513 l 358 521 q 316 547 343 533 q 274 560 289 560 q 222 531 247 560 q 185 461 196 501 q 171 369 174 422 q 175 283 168 317 q 199 199 182 239 q 246 125 215 158 q 271 104 256 114 q 294 93 286 94 l 314 103 m 182 929 q 192 933 188 932 q 201 935 196 935 q 243 903 229 935 q 248 881 249 893 q 243 857 247 868 q 215 831 231 838 q 199 828 207 828 q 179 832 186 828 q 156 855 163 840 q 149 888 149 869 q 171 925 149 924 q 176 927 174 926 q 182 929 179 928 m 378 932 q 412 915 397 932 q 424 879 426 899 q 407 846 421 860 q 375 832 393 832 q 371 833 372 832 q 367 833 369 833 q 339 849 353 836 q 329 883 328 864 q 344 919 331 906 q 378 932 358 932 z "},"":{"ha":592,"x_min":28,"x_max":564,"o":"m 256 -51 q 163 -9 203 -43 q 97 72 124 25 q 54 171 69 118 q 32 269 39 224 q 29 308 31 283 q 28 358 28 332 q 29 410 28 385 q 32 449 31 435 q 125 711 53 607 q 215 799 165 769 q 313 829 264 829 q 407 801 365 829 q 478 730 449 772 q 526 637 508 688 q 553 542 544 586 q 561 484 560 506 q 564 418 563 463 q 556 308 564 364 q 532 199 549 253 q 488 97 515 146 q 421 11 461 49 q 352 -37 386 -21 q 271 -53 318 -53 q 256 -51 260 -53 m 332 -7 q 422 65 385 15 q 483 174 460 114 q 516 299 506 235 q 526 417 526 363 q 519 517 526 463 q 493 623 511 571 q 445 717 475 675 q 371 779 415 758 q 342 786 358 786 q 290 761 318 786 q 223 646 251 725 q 182 456 194 567 q 179 411 181 439 q 178 353 178 383 q 179 294 178 322 q 182 250 181 267 q 223 78 194 146 q 292 -11 251 11 q 303 -14 297 -14 q 332 -7 314 -14 m 208 950 q 218 954 214 953 q 228 956 222 956 q 269 924 256 956 q 274 901 275 914 q 269 878 274 889 q 242 851 257 858 q 225 849 233 849 q 206 853 213 849 q 182 876 189 861 q 175 908 175 890 q 197 946 175 944 q 203 948 200 947 q 208 950 206 949 m 404 953 q 438 936 424 953 q 450 900 453 919 q 433 867 447 881 q 401 853 419 853 q 397 853 399 853 q 393 854 396 854 q 365 869 379 857 q 356 904 354 885 q 371 940 357 926 q 404 953 385 953 z "},"":{"ha":636,"x_min":29,"x_max":610,"o":"m 264 -8 q 110 92 172 8 q 31 306 47 176 q 29 333 29 315 q 29 369 29 350 q 29 406 29 388 q 31 433 29 424 q 56 544 38 488 q 105 652 74 601 q 179 742 136 703 q 279 796 222 781 q 300 801 292 800 q 336 801 308 801 q 373 801 364 801 q 394 796 382 800 q 485 744 444 781 q 553 657 525 708 q 595 541 581 606 q 607 404 610 476 q 585 269 606 340 q 528 136 565 197 q 435 33 490 75 q 306 -11 379 -8 q 281 -11 292 -11 q 263 -8 271 -11 l 264 -8 m 365 36 q 447 90 411 54 q 507 169 482 125 q 548 261 532 213 q 569 356 564 310 q 572 424 572 382 q 569 492 572 467 q 517 650 556 583 q 419 747 478 717 q 395 758 404 756 q 371 760 386 760 q 257 647 307 746 q 207 492 224 581 q 194 315 190 403 q 201 246 197 282 q 215 175 206 210 q 241 108 225 140 q 281 53 257 76 q 336 31 303 31 q 365 36 349 31 m 228 922 q 238 926 233 925 q 247 928 242 928 q 289 896 275 928 q 294 874 294 886 q 289 850 293 861 q 261 824 276 831 q 244 821 253 821 q 225 825 232 821 q 201 848 208 833 q 194 881 194 863 q 217 918 194 917 q 222 920 219 919 q 228 922 225 921 m 424 925 q 458 908 443 925 q 469 872 472 892 q 453 839 467 853 q 421 825 439 825 q 417 826 418 825 q 413 826 415 826 q 385 842 399 829 q 375 876 374 857 q 390 912 376 899 q 424 925 404 925 z "},"":{"ha":592,"x_min":24,"x_max":565,"o":"m 242 -36 q 144 28 186 -22 q 79 158 103 79 q 68 204 72 182 q 60 252 64 226 q 55 309 57 278 q 51 382 53 340 q 52 525 50 460 q 63 674 54 590 q 67 715 65 694 q 68 742 68 735 l 69 761 l 53 761 q 33 765 36 761 q 32 785 24 776 q 44 789 40 789 q 66 790 47 789 q 111 792 85 790 q 168 794 138 793 q 225 794 199 794 l 268 796 l 274 792 q 279 779 279 786 q 273 766 279 769 q 249 761 267 763 q 232 758 232 761 q 231 740 232 750 q 230 719 231 731 q 228 696 229 708 q 219 580 224 644 q 213 464 215 515 q 211 410 211 440 q 211 349 211 379 q 213 294 211 319 q 215 257 214 269 q 253 126 226 182 q 318 44 279 69 q 347 29 332 36 q 364 24 361 22 q 387 46 372 26 q 411 86 401 65 q 453 224 439 144 q 474 426 468 304 q 478 535 476 492 q 480 611 479 579 q 481 667 481 643 q 479 715 481 690 l 476 756 l 424 753 l 418 757 q 413 765 413 763 q 422 779 413 776 q 443 783 425 782 q 483 786 461 785 q 524 788 504 788 q 550 789 544 789 q 563 778 560 786 q 560 763 565 769 q 553 759 557 760 q 533 757 549 758 q 511 756 511 757 q 511 739 511 749 q 512 722 511 732 q 513 701 513 713 q 514 666 514 681 q 514 628 514 651 q 513 565 514 606 q 508 451 511 525 q 503 352 507 408 q 490 238 500 296 q 465 128 481 181 q 422 38 449 75 q 278 -39 372 -39 q 258 -38 267 -39 q 242 -36 249 -37 m 224 926 q 233 931 229 929 q 243 932 238 932 q 285 900 271 932 q 290 878 290 890 q 285 854 289 865 q 257 828 272 835 q 240 825 249 825 q 221 829 228 825 q 197 852 204 838 q 190 885 190 867 q 213 922 190 921 q 218 924 215 924 q 224 926 221 925 m 419 929 q 453 913 439 929 q 465 876 468 896 q 449 843 463 857 q 417 829 435 829 q 413 830 414 829 q 408 831 411 831 q 381 846 394 833 q 371 881 369 861 q 386 916 372 903 q 419 929 400 929 z "},"":{"ha":578,"x_min":25,"x_max":556,"o":"m 235 -8 q 198 8 217 -4 q 165 36 179 21 q 100 151 126 79 q 61 311 74 222 q 50 501 49 400 q 68 701 51 601 q 75 735 75 729 q 73 738 76 738 q 57 738 69 738 q 40 738 44 738 q 33 742 36 739 q 31 761 25 751 q 40 771 32 767 q 76 774 49 774 q 137 776 104 775 q 200 778 169 778 q 243 778 231 778 q 253 769 250 775 q 254 757 257 764 q 226 744 251 746 q 210 740 211 743 q 204 707 208 738 q 192 483 192 599 q 204 269 192 368 q 212 217 206 256 q 229 139 218 179 q 256 67 240 99 q 292 35 271 35 q 303 36 299 35 q 315 44 307 38 q 383 132 353 72 q 436 271 414 192 q 469 442 458 350 q 475 626 479 533 q 470 692 472 658 q 465 738 468 725 l 464 743 l 439 743 q 417 744 421 743 q 410 747 413 744 q 406 764 403 756 q 419 775 410 772 q 438 776 422 775 q 472 779 453 778 q 508 781 490 781 q 529 782 525 782 q 542 777 536 782 q 547 765 547 772 q 528 749 547 751 q 517 746 517 746 q 515 642 517 697 q 515 528 515 593 q 514 390 515 464 l 513 35 l 525 35 q 549 13 556 35 q 538 3 546 6 q 507 0 531 1 q 476 -2 489 -1 q 456 -3 464 -3 q 435 0 440 -3 q 428 19 425 7 q 437 29 431 26 q 458 32 443 32 l 478 33 l 478 163 l 479 292 l 471 263 q 379 60 435 132 q 258 -11 324 -12 q 235 -8 246 -11 m 201 911 q 211 915 207 914 q 221 917 215 917 q 263 885 249 917 q 267 863 268 875 q 263 839 267 850 q 235 813 250 819 q 218 810 226 810 q 199 814 206 810 q 175 837 182 822 q 168 869 168 851 q 190 907 168 906 q 196 909 193 908 q 201 911 199 910 m 397 914 q 431 897 417 914 q 443 861 446 881 q 426 828 440 842 q 394 814 413 814 q 390 815 392 814 q 386 815 389 815 q 358 831 372 818 q 349 865 347 846 q 364 901 350 888 q 397 914 378 914 z "},"@":{"ha":1007,"x_min":92,"x_max":879,"o":"m 390 -89 q 239 -39 303 -78 q 135 81 175 0 q 103 170 114 121 q 92 268 92 219 q 124 433 92 350 q 211 582 156 515 q 342 691 267 649 q 504 733 417 733 q 633 715 568 733 q 752 660 699 697 q 840 570 806 624 q 876 446 874 517 q 853 303 879 375 q 782 183 828 232 q 738 150 763 164 q 683 136 713 136 q 618 159 647 136 q 578 224 589 182 q 569 244 569 244 l 564 236 q 537 203 554 219 q 499 173 519 186 q 456 152 478 160 q 413 144 433 144 q 341 170 372 144 q 297 242 310 196 q 293 263 294 251 q 292 297 292 275 q 294 335 293 324 q 300 367 294 346 q 335 451 313 413 q 388 517 357 489 q 453 560 418 544 q 525 575 488 575 q 577 568 553 575 q 611 550 601 561 l 618 544 l 617 436 q 617 349 617 385 q 620 288 618 313 q 626 249 622 264 q 635 222 629 233 q 683 189 651 189 q 731 208 708 189 q 769 253 753 226 q 798 310 786 281 q 814 358 810 339 q 819 480 832 426 q 764 579 807 533 q 651 655 715 629 q 518 681 588 681 q 449 673 482 681 q 382 651 417 665 q 318 595 347 638 q 268 502 289 553 q 234 403 247 451 q 217 328 221 354 q 208 247 211 293 q 209 154 206 200 q 224 70 213 108 q 256 13 235 32 q 330 -25 286 -12 q 417 -37 374 -37 q 467 -33 443 -37 q 508 -21 490 -29 q 524 -9 514 -18 q 547 13 535 0 q 572 36 567 32 q 583 40 576 40 q 608 15 608 40 q 603 -3 608 6 q 581 -29 597 -12 q 536 -66 558 -53 q 482 -85 514 -79 q 451 -89 468 -87 q 418 -90 435 -90 q 404 -90 411 -90 q 390 -89 397 -90 m 451 207 q 478 225 464 214 q 504 249 493 236 q 531 285 517 261 q 554 328 546 308 q 563 353 561 343 q 565 399 564 363 q 567 444 567 418 q 569 485 568 469 q 568 524 572 519 q 559 524 567 524 q 540 526 551 525 q 527 527 533 526 q 515 528 521 528 q 499 522 504 528 q 458 482 474 500 q 433 448 443 464 q 418 415 424 432 q 406 375 413 397 q 391 285 394 335 q 403 207 388 235 q 421 199 408 199 q 451 207 438 199 z "}}}
